<?xml version="1.0" standalone="no"?>
<!DOCTYPE svg PUBLIC "-//W3C//DTD SVG 20010904//EN"
 "http://www.w3.org/TR/2001/REC-SVG-20010904/DTD/svg10.dtd">
<svg version="1.0" xmlns="http://www.w3.org/2000/svg"
 width="860.000000pt" height="1215.000000pt" viewBox="0 0 860.000000 1215.000000"
 preserveAspectRatio="xMidYMid meet">

<g transform="translate(0.000000,1215.000000) scale(0.100000,-0.100000)"
fill="#000000" stroke="none">
<path d="M0 6075 l0 -6075 4300 0 4300 0 0 6075 0 6075 -4300 0 -4300 0 0
-6075z m6968 4705 c113 -27 195 -93 245 -198 l32 -67 0 -4440 0 -4440 -32 -65
c-37 -75 -87 -127 -158 -164 l-50 -26 -2705 0 -2706 0 -51 26 c-68 33 -130 96
-162 164 l-26 55 0 4455 0 4455 28 53 c54 102 141 172 239 191 63 13 5293 13
5346 1z"/>
<path d="M1628 10686 c-26 -7 -55 -19 -65 -26 -52 -39 -78 -70 -99 -115 l-24
-50 1 -4415 c0 -3662 2 -4421 13 -4453 20 -55 59 -101 113 -133 l48 -29 2680
0 2680 0 41 22 c59 32 111 94 129 155 14 48 15 510 13 4458 l-3 4405 -30 55
c-36 65 -100 113 -175 129 -79 17 -5259 14 -5322 -3z m209 -76 c9 0 12 -43 12
-165 l0 -165 -169 0 -169 0 3 68 c4 95 22 148 64 194 45 48 116 74 192 71 30
-1 60 -2 67 -3z m163 -240 l0 -250 -245 0 -245 0 0 55 0 55 175 1 c96 1 181 2
188 3 9 1 13 48 15 194 l2 192 55 0 55 0 0 -250z m630 211 c0 -45 18 -94 51
-135 23 -29 110 -76 142 -76 15 0 17 -13 17 -125 l0 -125 -400 0 -400 0 0 219
c0 120 3 233 6 250 l7 31 288 0 289 0 0 -39z m400 22 c0 -64 -46 -140 -101
-168 -36 -19 -122 -19 -159 0 -47 24 -82 79 -88 135 l-5 50 177 0 c161 0 176
-1 176 -17z m1238 -40 l-3 -58 -51 -6 c-130 -16 -262 -84 -347 -178 -42 -48
-107 -162 -107 -190 0 -8 -126 -11 -445 -11 l-445 0 0 123 0 124 40 12 c80 24
144 104 157 196 l6 45 599 0 599 0 -3 -57z m1262 14 c0 -31 9 -59 33 -97 27
-46 42 -60 94 -85 l63 -30 0 -122 0 -123 -437 0 -438 0 -37 79 c-70 149 -229
268 -393 293 -39 6 -76 12 -82 14 -9 2 -13 23 -13 59 l0 55 605 0 605 0 0 -43z
m390 20 c0 -64 -42 -132 -102 -163 -43 -22 -129 -18 -169 9 -40 26 -79 98 -79
144 l0 33 175 0 c175 0 175 0 175 -23z m630 -227 l0 -250 -394 0 -395 0 -3
109 c-4 128 -2 141 20 141 30 1 96 36 129 70 34 35 63 105 63 152 l0 28 290 0
290 0 0 -250z m160 55 l0 -195 189 0 188 0 2 -55 1 -55 -250 0 -250 0 0 250 0
250 60 0 60 0 0 -195z m219 174 c97 -32 140 -97 148 -228 l6 -91 -167 0 -166
0 0 168 0 168 71 -3 c39 -1 88 -8 108 -14z m-2544 -129 c65 -10 159 -43 188
-64 15 -12 16 -18 6 -39 -11 -24 -8 -29 42 -76 l54 -49 -28 -30 c-25 -26 -26
-30 -12 -42 8 -7 25 -30 37 -51 l22 -39 318 0 318 0 0 -80 0 -80 -459 0 c-404
0 -460 -2 -472 -16 -42 -51 -131 -56 -191 -10 l-35 26 -451 0 -452 0 0 80 0
80 314 0 313 0 37 56 38 56 -27 28 -26 27 34 30 c19 16 44 37 56 45 19 13 21
20 12 36 -18 34 -13 42 44 68 103 47 210 62 320 44z m-2385 -665 l0 -266 -122
3 -123 3 -6 38 c-14 85 -97 160 -191 173 l-48 7 0 153 0 154 245 0 245 0 0
-265z m5087 113 l-2 -151 -55 -12 c-69 -14 -88 -24 -133 -74 -31 -35 -57 -92
-57 -128 0 -10 -32 -13 -125 -13 l-125 0 0 265 0 265 249 0 250 0 -2 -152z
m-3857 37 l0 -75 460 0 460 0 42 -27 c35 -24 52 -28 108 -28 57 0 72 4 103 28
l36 27 460 0 c362 0 461 3 462 13 0 6 0 31 -1 54 -1 23 4 51 10 62 11 21 15
21 545 21 370 0 542 -3 558 -11 14 -6 30 -22 36 -36 7 -16 11 -162 11 -462 0
-428 0 -439 -21 -465 l-20 -26 -2078 0 -2077 0 -22 -45 -22 -45 2095 0 c2082
0 2095 0 2115 -20 20 -20 20 -33 20 -2844 l0 -2825 -26 -20 c-27 -21 -33 -21
-819 -21 l-792 0 -18 48 c-27 73 -71 136 -138 199 -182 170 -474 206 -707 88
-114 -58 -219 -172 -255 -278 l-19 -57 -797 0 c-790 0 -796 0 -823 21 l-26 20
0 2450 0 2449 -45 0 -45 0 0 -1020 0 -1020 -125 0 -125 0 0 25 c0 37 -34 97
-74 133 -33 29 -122 64 -149 59 -9 -1 -13 362 -15 1491 l-2 1492 37 0 c82 0
173 73 195 156 l12 44 123 0 123 0 0 -50 0 -50 45 0 45 0 0 281 c0 179 4 287
11 300 6 11 20 24 32 29 12 5 264 9 560 9 l537 1 0 -75z m-1633 -260 c78 -33
118 -98 111 -181 -7 -87 -86 -163 -170 -164 l-28 0 0 180 0 180 25 0 c14 0 42
-7 62 -15z m5491 -169 l3 -179 -46 6 c-115 16 -182 114 -153 225 19 74 96 133
168 129 l25 -2 3 -179z m-239 -53 c24 -89 116 -163 203 -163 l38 0 -3 -1492
-2 -1493 -52 -6 c-29 -4 -68 -17 -89 -29 -42 -26 -91 -98 -100 -147 l-6 -33
-124 0 -124 0 0 1700 0 1700 125 0 124 0 10 -37z m-5225 -3227 c80 -47 109
-151 66 -236 -26 -52 -72 -82 -131 -88 l-49 -5 0 177 0 176 37 0 c20 0 54 -10
77 -24z m5461 -151 l0 -170 -29 -3 c-85 -10 -166 68 -171 163 -5 99 73 189
160 183 l40 -3 0 -170z m-5085 -1740 l0 -1716 -121 3 -122 3 -12 48 c-23 89
-98 154 -191 165 l-44 5 0 1503 0 1504 31 0 c40 0 108 32 143 67 31 30 66 93
66 118 0 13 19 15 125 15 l125 0 0 -1715z m4865 1652 c38 -79 102 -128 176
-135 l49 -5 -3 -1501 -2 -1501 -46 -6 c-25 -4 -59 -14 -76 -22 -49 -26 -99
-90 -114 -146 l-13 -51 -123 0 -123 0 0 1715 0 1715 123 0 122 0 30 -63z
m-2380 -2461 c100 -34 114 -46 95 -82 -13 -23 -12 -27 4 -36 10 -6 36 -26 58
-46 l39 -35 -26 -27 -27 -28 38 -56 37 -56 318 0 319 0 0 -80 0 -80 -457 0
-458 0 -44 -30 c-24 -17 -57 -30 -73 -30 -36 0 -89 21 -107 43 -12 15 -58 17
-472 17 l-459 0 0 80 0 80 314 0 313 0 40 54 41 54 -25 24 c-30 30 -24 46 33
89 44 33 46 39 29 82 -6 14 3 22 48 43 132 60 280 67 422 20z m-1253 -488 l3
-73 464 -3 c376 -2 468 -5 480 -16 68 -59 192 -60 240 -3 12 15 58 17 482 17
l468 0 3 73 3 72 525 3 c289 1 540 0 557 -3 63 -11 63 -14 63 -503 0 -429 0
-440 -21 -466 l-20 -26 -2170 0 -2170 0 -24 25 -25 24 0 449 c0 471 -1 466 45
490 14 8 188 11 557 12 l537 0 3 -72z m-1595 -285 c55 -44 75 -88 71 -155 -3
-43 -11 -65 -32 -93 -31 -40 -94 -74 -138 -75 l-28 0 0 181 0 182 46 -6 c30
-3 58 -15 81 -34z m5448 -143 l0 -175 -28 -3 c-36 -4 -112 33 -136 66 -50 71
-45 176 12 233 39 39 83 59 122 56 l30 -2 0 -175z m-5085 -285 l0 -265 -245 0
-245 0 0 165 0 165 33 0 c84 0 188 85 203 166 l6 34 124 0 124 0 0 -265z
m4850 224 c11 -41 66 -111 104 -132 12 -6 46 -16 76 -22 l55 -12 0 -159 0
-159 -247 -3 -248 -2 0 265 0 265 125 0 124 0 11 -41z m-4850 -779 l0 -250
-55 0 -55 0 0 190 0 190 -190 0 -190 0 0 60 0 60 245 0 245 0 0 -250z m838
123 l-3 -127 -30 -6 c-97 -21 -175 -112 -175 -205 l0 -35 -295 0 -295 0 1 250
1 250 399 0 400 0 -3 -127z m2882 -2 l0 -128 -27 -6 c-76 -15 -153 -104 -161
-186 l-5 -51 -1206 -2 c-663 -2 -1216 -2 -1227 0 -18 3 -23 12 -28 52 -12 87
-86 169 -175 193 -20 5 -21 11 -21 131 l0 126 1425 0 1425 0 0 -129z m830
-121 l0 -250 -289 0 -288 0 -6 45 c-15 108 -83 178 -190 197 -16 3 -18 15 -18
123 0 66 0 123 0 128 1 4 179 7 396 7 l395 0 0 -250z m535 228 c3 -13 3 -39 2
-58 l-4 -35 -186 -3 -187 -2 0 -190 0 -190 -60 0 -60 0 0 250 0 250 245 0 245
0 5 -22z m-5240 -308 l0 -165 -55 -3 c-168 -10 -266 79 -274 249 -2 41 -2 77
1 82 2 4 77 6 166 5 l162 -3 0 -165z m5235 110 c0 -106 -17 -158 -69 -210 -53
-53 -102 -70 -200 -70 l-61 0 0 170 0 170 165 0 165 0 0 -60z m-4145 -103 c44
-25 79 -80 90 -139 l7 -38 -177 0 -178 0 5 45 c14 123 147 192 253 132z m2867
11 c47 -14 93 -63 107 -115 22 -77 32 -73 -165 -73 l-177 0 6 46 c8 78 88 154
161 154 16 0 46 -5 68 -12z"/>
<path d="M1690 10568 c-83 -24 -129 -90 -138 -195 l-5 -63 132 0 131 0 0 135
0 135 -42 -1 c-24 0 -59 -5 -78 -11z"/>
<path d="M1922 10563 c2 -10 12 -18 23 -18 11 0 21 8 23 18 3 13 -3 17 -23 17
-20 0 -26 -4 -23 -17z"/>
<path d="M1550 10174 c0 -33 33 -30 38 4 3 17 -2 22 -17 22 -16 0 -21 -6 -21
-26z"/>
<path d="M2080 10560 c0 -19 7 -20 253 -20 140 0 256 3 260 6 3 3 3 12 0 20
-4 11 -50 14 -259 14 -247 0 -254 -1 -254 -20z"/>
<path d="M2715 10558 c41 -138 236 -141 271 -4 10 40 -29 36 -46 -4 -14 -33
-55 -60 -92 -60 -35 0 -87 36 -94 65 -4 16 -13 25 -26 25 -15 0 -18 -5 -13
-22z"/>
<path d="M2790 10560 c17 -32 56 -43 89 -25 16 8 31 21 34 30 5 13 -5 15 -64
15 -67 0 -69 -1 -59 -20z"/>
<path d="M3100 10560 c0 -20 7 -20 563 -20 310 0 566 3 570 6 3 3 3 12 0 20
-4 12 -94 14 -569 14 -557 0 -564 0 -564 -20z"/>
<path d="M4362 10563 c3 -17 37 -18 568 -18 496 0 565 2 565 15 0 13 -71 15
-568 18 -538 2 -568 1 -565 -15z"/>
<path d="M5607 10558 c15 -58 79 -108 138 -108 41 0 95 30 116 64 23 37 24 66
4 66 -8 0 -15 -4 -15 -9 0 -23 -54 -71 -86 -77 -46 -9 -80 8 -105 51 -24 40
-61 49 -52 13z"/>
<path d="M5680 10572 c0 -17 40 -44 65 -44 25 0 65 27 65 44 0 4 -29 8 -65 8
-36 0 -65 -4 -65 -8z"/>
<path d="M6000 10560 c0 -19 7 -20 255 -20 248 0 255 1 255 20 0 19 -7 20
-255 20 -248 0 -255 -1 -255 -20z"/>
<path d="M6632 10563 c2 -10 10 -18 18 -18 8 0 16 8 18 18 2 12 -3 17 -18 17
-15 0 -20 -5 -18 -17z"/>
<path d="M7010 10176 c0 -20 5 -26 21 -26 15 0 20 5 17 22 -5 34 -38 37 -38 4z"/>
<path d="M6780 10446 l0 -136 135 0 135 0 0 24 c0 50 -21 132 -42 163 -33 47
-89 75 -164 81 l-64 5 0 -137z"/>
<path d="M4182 10431 c-56 -15 -122 -42 -122 -52 0 -5 32 -65 71 -135 57 -99
75 -124 88 -118 64 27 72 28 108 17 21 -5 45 -13 53 -17 10 -4 21 6 36 32 11
20 44 79 73 131 58 104 59 100 -24 127 -56 19 -232 28 -283 15z"/>
<path d="M4007 10278 l-38 -31 83 -84 c73 -73 118 -102 118 -74 0 8 -119 221
-123 221 -1 -1 -19 -15 -40 -32z"/>
<path d="M4499 10228 c-23 -40 -50 -87 -60 -104 -24 -40 -24 -44 2 -44 13 0
50 31 99 83 44 45 80 84 80 87 0 6 -64 50 -73 50 -3 0 -25 -33 -48 -72z"/>
<path d="M3971 10131 c-32 -45 -27 -51 39 -51 33 0 60 4 60 8 0 9 -63 72 -72
72 -4 0 -16 -13 -27 -29z"/>
<path d="M4563 10128 c-18 -19 -33 -37 -33 -41 0 -4 27 -7 60 -7 33 0 60 4 60
10 0 5 -12 24 -27 40 l-28 31 -32 -33z"/>
<path d="M4253 10106 c-90 -40 -79 -178 16 -207 34 -10 44 -9 73 7 18 11 41
37 52 57 16 34 17 42 5 74 -25 63 -89 94 -146 69z m92 -51 c48 -47 22 -115
-44 -115 -59 0 -92 50 -66 100 24 47 72 54 110 15z"/>
<path d="M4277 10039 c-32 -18 -14 -69 25 -69 19 0 42 35 33 50 -12 19 -40 28
-58 19z"/>
<path d="M3302 10003 l3 -48 425 0 425 0 3 48 3 47 -431 0 -431 0 3 -47z"/>
<path d="M4438 10004 c-2 -26 1 -48 7 -50 5 -2 199 -3 430 -2 l419 3 1 45 0
45 -426 3 -427 2 -4 -46z"/>
<path d="M1550 9916 c0 -120 1 -126 20 -126 20 0 20 5 18 122 -3 108 -5 123
-20 126 -16 3 -18 -8 -18 -122z"/>
<path d="M7010 9916 c0 -120 1 -126 20 -126 20 0 20 5 18 122 -3 108 -5 123
-20 126 -16 3 -18 -8 -18 -122z"/>
<path d="M2143 9983 c-10 -3 -13 -72 -13 -294 l0 -289 33 -14 c48 -19 103 -71
135 -124 20 -35 28 -64 32 -122 l5 -75 2053 -3 c1411 -1 2059 1 2073 8 19 11
19 24 17 463 l-3 452 -537 3 -538 2 0 -75 0 -75 -475 0 c-452 1 -477 0 -503
-18 -71 -50 -161 -52 -238 -7 l-43 25 -470 0 -471 0 0 75 0 75 -522 -1 c-288
0 -529 -3 -535 -6z m1264 -370 c63 -30 77 -109 28 -162 -12 -14 -9 -26 26 -95
21 -43 36 -82 33 -87 -3 -5 -23 -9 -44 -9 -37 0 -40 3 -60 48 -12 26 -33 60
-48 75 l-27 28 -5 -73 -5 -73 -45 0 -45 0 -3 170 c-1 93 0 175 2 182 8 20 149
17 193 -4z m383 -12 c0 -34 -14 -41 -81 -41 l-49 0 0 -35 c0 -34 1 -35 40 -35
34 0 41 -4 46 -24 9 -36 -2 -46 -46 -46 l-39 0 -3 -77 -3 -78 -45 0 -45 0 -3
183 -2 182 115 0 115 0 0 -29z m279 -5 c23 -22 31 -39 31 -64 0 -36 -15 -72
-36 -85 -9 -5 -4 -21 22 -65 58 -95 57 -122 -2 -122 -32 0 -37 4 -54 43 -22
48 -57 97 -70 97 -5 0 -10 -30 -12 -67 l-3 -68 -45 0 -45 0 -3 183 -2 184 94
-4 c89 -3 97 -5 125 -32z m882 13 c32 -23 39 -67 17 -114 -9 -21 -9 -28 1 -34
16 -10 30 -72 24 -104 -7 -36 -59 -85 -98 -93 -43 -8 -95 4 -102 22 -8 22 26
54 57 54 33 0 53 21 48 52 -2 18 -9 22 -27 20 -25 -2 -50 22 -51 50 0 9 13 25
30 34 33 20 45 43 31 57 -5 5 -17 0 -30 -14 -18 -20 -23 -21 -45 -9 -37 20
-39 38 -7 71 24 24 38 29 76 29 31 0 57 -7 76 -21z m219 -9 c20 -11 40 -59 40
-97 0 -36 -30 -94 -53 -102 -62 -23 -111 31 -104 116 2 32 11 60 22 73 19 21
64 26 95 10z m190 0 c0 -6 -13 -37 -30 -70 -32 -64 -37 -81 -18 -62 20 20 63
14 88 -13 28 -29 37 -108 18 -145 -21 -38 -60 -57 -93 -42 -31 14 -59 74 -53
114 3 15 2 28 -1 27 -3 0 -22 -32 -42 -72 -33 -64 -41 -72 -68 -75 -27 -3 -31
0 -31 20 0 13 15 48 33 79 17 30 55 99 82 152 48 92 52 97 83 97 17 0 32 -5
32 -10z m-864 -74 c3 -13 4 -32 2 -42 -2 -15 3 -19 27 -20 55 -1 56 -2 53 -36
-3 -30 -6 -33 -43 -38 -27 -4 -39 -10 -37 -19 2 -8 0 -27 -3 -42 -6 -25 -11
-29 -41 -29 -34 0 -34 1 -34 44 l0 45 -42 3 c-39 3 -43 6 -46 30 -3 22 2 30
23 38 14 5 29 9 33 9 25 -4 32 4 32 41 0 39 1 40 35 40 28 0 36 -4 41 -24z"/>
<path d="M3230 9450 l0 -170 35 0 35 0 0 76 0 76 33 -19 c20 -12 42 -40 60
-76 25 -50 32 -57 58 -57 16 0 29 2 29 5 0 13 -54 112 -71 130 -18 20 -18 21
11 49 21 20 30 37 30 60 0 60 -63 95 -172 96 l-48 0 0 -170z m130 110 c23 -23
24 -29 11 -63 -10 -26 -59 -46 -70 -29 -3 6 -4 33 -3 61 3 42 7 51 23 51 10 0
28 -9 39 -20z"/>
<path d="M3310 9521 c0 -28 4 -41 14 -41 40 0 48 73 9 78 -21 3 -23 -1 -23
-37z"/>
<path d="M3575 9607 c-3 -7 -4 -84 -3 -171 l3 -159 33 -1 32 -1 0 83 0 82 45
0 c33 0 45 4 45 14 0 10 -14 16 -42 18 l-43 3 0 50 0 50 68 3 c58 2 68 6 65
20 -3 14 -18 17 -101 20 -74 2 -99 0 -102 -11z"/>
<path d="M3865 9610 c-6 -10 -6 -321 0 -331 2 -3 18 -4 35 -1 l30 4 0 69 c0
61 2 69 19 69 26 0 66 -44 88 -95 14 -34 24 -44 45 -47 16 -3 30 -3 33 0 6 6
-62 139 -76 147 -7 5 -2 16 15 34 79 83 14 160 -136 161 -26 0 -49 -4 -53 -10z
m126 -40 c13 -7 19 -21 19 -43 0 -43 -10 -55 -48 -63 l-32 -6 0 61 c0 55 2 61
21 61 11 0 29 -5 40 -10z"/>
<path d="M3950 9520 c0 -33 3 -41 16 -38 9 2 22 11 28 21 13 20 -2 50 -28 55
-13 3 -16 -5 -16 -38z"/>
<path d="M4830 9603 c-38 -20 -45 -40 -18 -57 14 -8 20 -7 31 8 19 26 51 17
55 -15 2 -20 -5 -32 -33 -54 -41 -30 -35 -50 13 -50 25 0 27 -4 30 -43 4 -54
-12 -76 -49 -68 -18 3 -32 -1 -43 -13 -16 -17 -16 -19 -1 -25 9 -3 35 -6 57
-6 32 0 47 7 74 34 42 42 46 90 10 133 -24 29 -24 29 -5 53 25 33 24 62 -4 88
-33 31 -75 36 -117 15z"/>
<path d="M5090 9580 c-19 -19 -25 -46 -20 -100 3 -38 18 -59 47 -66 62 -16 99
100 52 160 -24 31 -52 33 -79 6z m55 -41 c8 -25 -2 -89 -14 -89 -11 0 -21 26
-21 55 0 51 23 73 35 34z"/>
<path d="M5303 9588 c-5 -7 -45 -80 -87 -161 -69 -131 -75 -148 -56 -145 14 2
31 19 44 43 59 107 136 257 136 266 0 13 -26 11 -37 -3z"/>
<path d="M5315 9445 c-20 -19 -25 -34 -25 -72 0 -61 21 -93 60 -93 44 0 65 40
61 118 -1 24 -42 72 -61 72 -6 0 -22 -11 -35 -25z m49 -31 c13 -34 4 -104 -14
-104 -4 0 -11 15 -14 34 -11 57 12 113 28 70z"/>
<path d="M4437 9533 c-4 -3 -7 -24 -7 -45 0 -38 0 -38 -40 -38 -36 0 -40 -2
-40 -25 0 -22 4 -25 40 -25 40 0 40 0 40 -39 0 -26 5 -41 16 -45 25 -10 34 2
34 45 0 39 0 39 40 39 36 0 40 3 40 25 0 23 -4 25 -40 25 l-40 0 0 45 c0 37
-3 45 -18 45 -10 0 -22 -3 -25 -7z"/>
<path d="M1980 9371 c-46 -14 -85 -39 -122 -78 -98 -101 -89 -277 19 -374 152
-138 395 -39 420 170 3 31 -1 68 -11 105 -37 128 -186 213 -306 177z"/>
<path d="M1557 9273 c-4 -3 -7 -660 -7 -1459 0 -1443 0 -1452 20 -1457 20 -5
20 0 20 1459 0 1495 0 1491 -33 1457z"/>
<path d="M2226 8885 c-16 -13 -47 -31 -68 -41 -36 -16 -38 -19 -38 -65 0 -46
1 -48 37 -60 56 -18 136 -104 158 -168 22 -67 17 -179 -10 -236 -25 -52 -91
-116 -144 -139 l-41 -19 0 -1534 0 -1534 23 3 c21 3 22 9 25 88 3 91 8 100 59
100 17 0 35 5 39 11 3 6 7 83 8 171 1 168 1 168 46 181 12 3 14 19 12 74 -3
68 -5 70 -35 84 l-32 14 -3 89 c-2 49 1 93 5 97 5 5 52 14 106 20 67 9 94 16
87 23 -16 16 -13 173 4 179 17 7 190 26 261 30 46 2 50 4 53 29 3 23 -2 30
-34 43 l-37 15 6 87 c4 47 10 90 15 95 4 4 52 11 105 15 l97 6 1 46 c2 136 10
256 18 264 5 5 29 11 53 14 l43 5 -3 82 c-1 44 2 87 7 95 12 19 96 29 249 30
102 1 122 3 122 16 0 8 11 111 25 228 31 272 45 505 45 756 0 200 0 201 23
205 12 3 114 12 227 21 573 46 1467 219 2205 425 78 22 146 40 152 40 13 0
102 -189 142 -304 40 -113 75 -252 98 -391 15 -91 18 -162 17 -410 -1 -269 -4
-319 -28 -480 -28 -188 -80 -451 -121 -617 -14 -53 -25 -99 -25 -101 0 -2 30
-7 66 -11 102 -10 104 -13 104 -106 0 -44 -4 -80 -9 -80 -4 0 -7 -10 -4 -22 2
-13 4 -52 6 -88 l2 -65 40 -5 c63 -9 65 -12 65 -106 0 -68 3 -84 15 -84 13 0
15 173 15 1493 0 1148 -3 1496 -12 1505 -9 9 -492 12 -2113 12 l-2100 -1 -29
-24z m1241 -80 c12 -14 38 -53 58 -87 29 -49 35 -68 31 -93 -37 -193 -577
-522 -771 -469 -25 6 -125 167 -125 201 0 80 151 230 353 349 209 124 397 165
454 99z m-602 -893 c241 -96 481 -328 462 -447 -12 -72 -109 -184 -159 -185
-137 -1 -374 125 -516 274 -75 79 -112 144 -112 196 0 33 62 142 96 171 38 31
139 27 229 -9z"/>
<path d="M3310 8814 c-8 -3 -44 -14 -80 -26 -244 -78 -550 -319 -550 -434 0
-169 575 89 743 333 42 63 47 95 15 117 -21 15 -94 20 -128 10z"/>
<path d="M3474 8726 c-3 -8 -2 -21 3 -29 7 -13 10 -13 23 1 13 14 12 15 -3 9
-11 -4 -17 -1 -17 9 0 9 5 12 12 8 7 -4 8 -3 4 4 -10 16 -15 15 -22 -2z"/>
<path d="M3506 8675 c-3 -9 -2 -13 4 -10 10 6 15 -9 10 -30 -1 -5 4 -5 10 2
10 9 9 16 -3 33 -12 18 -15 19 -21 5z"/>
<path d="M3435 8659 c-4 -6 -5 -12 -2 -15 2 -3 7 2 10 11 7 17 1 20 -8 4z"/>
<path d="M3476 8657 c3 -10 9 -15 12 -12 3 3 0 11 -7 18 -10 9 -11 8 -5 -6z"/>
<path d="M3379 8593 l-24 -26 27 19 c15 10 28 22 28 27 0 12 -5 8 -31 -20z"/>
<path d="M3417 8572 c-15 -16 -15 -18 1 -18 10 0 18 8 18 18 0 10 -1 18 -2 18
0 0 -8 -8 -17 -18z"/>
<path d="M3456 8531 c-12 -13 -14 -21 -6 -26 6 -4 9 -1 8 7 -2 7 3 12 10 10 8
-1 11 2 8 7 -4 5 0 12 6 14 8 3 8 6 2 6 -6 1 -19 -8 -28 -18z"/>
<path d="M3299 8522 c-14 -9 -58 -39 -99 -65 -146 -97 -306 -164 -421 -175
l-66 -7 34 -52 34 -53 55 0 c103 0 323 95 469 203 l66 48 -21 29 c-17 24 -19
34 -10 50 11 20 6 41 -8 39 -4 0 -19 -8 -33 -17z m33 -14 c-6 -6 -15 -8 -19
-4 -4 4 -1 11 7 16 19 12 27 3 12 -12z"/>
<path d="M3363 8467 c0 -15 41 -17 54 -3 4 5 1 7 -7 4 -8 -3 -22 -2 -31 3 -10
5 -16 4 -16 -4z"/>
<path d="M2654 7904 c-20 -19 -24 -31 -19 -52 13 -52 37 -92 96 -156 167 -182
467 -323 557 -260 115 80 -223 409 -493 479 -83 21 -112 19 -141 -11z"/>
<path d="M2583 7808 c-28 -51 -31 -71 -17 -106 19 -46 93 -140 149 -187 107
-90 272 -182 343 -191 29 -3 32 -2 17 5 -18 9 -18 10 -2 10 10 1 17 7 16 14
-6 44 -1 48 54 43 40 -4 44 -4 20 3 -67 17 -204 86 -283 140 -95 67 -212 187
-241 248 -13 29 -27 52 -31 53 -4 0 -15 -15 -25 -32z"/>
<path d="M3211 7390 c-1 -21 16 -46 26 -37 4 5 3 11 -3 15 -6 4 -14 14 -17 22
-5 13 -5 13 -6 0z"/>
<path d="M3230 7395 c0 -7 30 -13 34 -7 3 4 -4 9 -15 9 -10 1 -19 0 -19 -2z"/>
<path d="M3135 7370 c3 -5 8 -10 11 -10 2 0 4 5 4 10 0 6 -5 10 -11 10 -5 0
-7 -4 -4 -10z"/>
<path d="M3110 7340 c-13 -8 -12 -10 3 -10 9 0 17 5 17 10 0 12 -1 12 -20 0z"/>
<path d="M3203 7323 c0 -9 4 -10 14 -2 7 6 13 12 13 14 0 1 -6 2 -13 2 -8 0
-14 -6 -14 -14z"/>
<path d="M2000 8780 l0 -40 45 0 45 0 0 40 0 40 -45 0 -45 0 0 -40z"/>
<path d="M5990 8703 c-341 -95 -855 -214 -1245 -287 -486 -91 -764 -129 -1157
-161 l-78 -7 0 -161 c0 -187 -23 -583 -45 -772 -89 -759 -308 -1519 -617
-2138 -59 -118 -75 -158 -62 -155 25 4 57 68 214 413 38 85 115 287 171 452
184 543 295 1083 339 1653 6 80 13 165 15 190 1 25 3 142 4 261 l1 216 58 7
c31 3 82 9 112 12 274 28 841 108 955 134 22 5 114 23 205 40 283 53 957 207
1110 254 103 32 92 38 143 -82 116 -274 168 -548 169 -896 2 -398 -88 -888
-296 -1621 -157 -551 -212 -754 -241 -890 -48 -223 -50 -236 -70 -395 -20
-162 -20 -160 8 -160 23 0 24 4 30 98 13 195 74 482 203 942 14 52 30 113 35
135 9 36 44 158 99 345 51 170 144 545 180 720 45 225 64 364 86 615 35 418
-31 836 -186 1170 -20 45 -41 84 -46 87 -5 3 -47 -6 -94 -19z"/>
<path d="M1967 8696 c-103 -37 -166 -117 -175 -221 -6 -85 11 -145 59 -199
136 -154 370 -104 434 92 64 195 -130 395 -318 328z"/>
<path d="M5795 8574 c-115 -29 -250 -62 -300 -73 -49 -11 -139 -31 -200 -45
-60 -14 -121 -27 -135 -30 -14 -2 -79 -15 -145 -29 -106 -22 -599 -109 -775
-137 -57 -9 -193 -25 -581 -71 l-106 -12 -6 -276 c-7 -292 -26 -557 -52 -731
-9 -58 -20 -136 -25 -175 -25 -193 -123 -625 -196 -862 -119 -388 -248 -722
-383 -990 -28 -57 -51 -107 -51 -113 0 -5 18 -10 40 -10 l41 0 50 108 c200
425 332 797 449 1257 45 177 104 477 130 658 6 43 13 88 15 100 5 28 23 201
35 332 5 55 11 186 15 290 7 202 13 234 48 277 25 30 41 34 427 87 542 76
1086 176 1595 293 310 71 360 21 421 -422 21 -149 23 -431 5 -629 -29 -321
-112 -719 -253 -1206 -33 -115 -65 -226 -70 -245 -5 -19 -38 -136 -73 -260
-134 -474 -205 -815 -205 -991 l0 -47 56 -4 c32 -2 58 1 60 7 1 6 5 44 8 85
12 186 94 582 181 880 30 103 182 638 219 770 192 698 255 1305 180 1735 -28
163 -84 355 -140 483 -19 42 -27 52 -46 51 -13 -1 -117 -26 -233 -55z"/>
<path d="M5811 8401 c-19 -3 -36 -13 -38 -21 -4 -11 -2 -12 4 -2 6 8 23 11 46
8 21 -3 37 -1 37 5 0 6 8 5 21 -2 12 -6 25 -7 30 -2 5 5 1 9 -9 10 -9 1 -26 3
-37 6 -11 3 -35 2 -54 -2z"/>
<path d="M5741 8378 c-1 -20 -17 -24 -23 -6 -3 7 -9 8 -18 3 -10 -6 -8 -10 8
-16 23 -9 29 -33 12 -44 -5 -3 -10 2 -11 12 0 10 -3 13 -5 6 -3 -7 0 -21 6
-33 9 -17 8 -26 -4 -45 -18 -27 -12 -35 24 -35 19 0 26 5 27 20 2 18 0 19 -13
5 -25 -24 -38 -17 -19 11 12 18 13 29 6 38 -11 13 -5 26 12 26 5 0 7 -6 5 -12
-3 -7 1 -18 7 -25 7 -6 15 -30 19 -52 3 -22 9 -42 14 -45 15 -9 102 17 102 32
0 11 -8 13 -35 8 -31 -6 -35 -5 -35 14 0 13 8 24 20 27 16 4 18 9 9 24 -15 30
2 22 32 -13 16 -18 28 -27 29 -20 0 6 -4 12 -9 12 -5 0 -11 9 -14 20 -3 13 1
21 15 26 12 3 17 11 14 21 -3 8 -6 19 -6 24 0 6 -4 8 -9 5 -5 -3 -7 -15 -4
-26 3 -11 0 -20 -6 -20 -6 0 -11 14 -11 30 0 17 -4 30 -10 30 -12 0 -12 2 -1
-38 9 -31 9 -32 -16 -26 -22 6 -25 4 -20 -10 5 -13 2 -17 -11 -14 -26 5 -21
31 8 38 33 8 34 36 1 32 -14 -1 -29 3 -34 10 -6 9 -7 8 -3 -4 8 -26 -18 -22
-37 5 -13 18 -16 19 -16 5z m19 -22 c0 -3 -4 -8 -10 -11 -5 -3 -10 -1 -10 4 0
6 5 11 10 11 6 0 10 -2 10 -4z"/>
<path d="M5926 8373 c-6 -14 -5 -15 5 -6 7 7 10 15 7 18 -3 3 -9 -2 -12 -12z"/>
<path d="M5560 8346 c-28 -7 -46 -18 -48 -29 -2 -9 2 -17 9 -17 6 0 18 -8 25
-17 13 -17 14 -17 8 2 -7 19 -6 19 12 2 13 -12 16 -20 7 -25 -8 -5 -8 -12 2
-25 7 -10 15 -14 17 -10 3 4 3 2 2 -4 -2 -7 1 -13 7 -13 6 0 8 -3 6 -7 -3 -5
1 -14 9 -21 17 -16 18 -10 1 31 -8 18 -12 39 -9 47 2 9 -2 7 -12 -5 -8 -11
-16 -15 -16 -8 0 6 5 15 10 18 15 9 12 25 -5 25 -8 0 -15 5 -15 11 0 5 5 7 10
4 6 -3 10 -1 10 5 0 6 4 9 9 6 5 -4 17 -40 27 -82 l18 -76 52 6 c28 3 54 3 58
-1 3 -4 15 -8 26 -10 18 -3 19 0 8 17 -9 14 -15 16 -21 7 -6 -8 -7 -3 -4 11 5
19 2 22 -11 17 -9 -3 -30 -9 -46 -12 -24 -5 -28 -3 -23 10 4 10 2 17 -2 17 -5
0 -12 18 -16 39 -4 22 -12 44 -18 49 -24 18 -63 22 -84 7 -18 -13 -22 -13 -33
0 -10 12 -2 15 49 21 34 4 64 11 67 15 7 12 -31 10 -86 -5z"/>
<path d="M5935 8349 c-4 -6 -4 -13 0 -17 3 -3 10 0 15 8 8 12 10 11 10 -6 0
-11 8 -29 18 -40 11 -11 21 -32 24 -47 5 -26 4 -27 -31 -23 -20 2 -41 6 -47 8
-7 1 -11 -1 -10 -7 0 -5 10 -9 21 -7 15 2 13 -1 -7 -10 -20 -10 -24 -16 -14
-24 7 -7 21 -8 34 -3 30 11 28 17 -5 12 -24 -3 -25 -2 -8 6 11 5 31 10 45 10
20 1 22 -1 10 -9 -8 -5 -10 -10 -4 -10 6 0 17 6 23 14 16 19 -5 106 -26 106
-8 0 -11 5 -8 10 7 11 -12 40 -26 40 -4 0 -11 -5 -14 -11z"/>
<path d="M5670 8340 c-9 -6 -10 -10 -3 -10 6 0 15 5 18 10 8 12 4 12 -15 0z"/>
<path d="M5490 8329 c0 -6 -7 -9 -15 -5 -8 3 -15 1 -15 -5 0 -6 -4 -8 -9 -5
-5 3 -8 -2 -7 -12 0 -10 -6 -16 -16 -16 -24 2 -23 -12 2 -19 14 -4 22 2 29 22
6 16 10 19 10 9 1 -9 6 -20 12 -24 8 -4 9 1 4 16 -5 15 -4 20 4 16 7 -4 11 1
11 13 0 12 -2 21 -5 21 -3 0 -5 -5 -5 -11z"/>
<path d="M5675 8311 c-3 -5 -1 -12 5 -16 5 -3 10 1 10 9 0 18 -6 21 -15 7z"/>
<path d="M5352 8303 c-19 -4 -23 -9 -18 -28 4 -17 2 -22 -12 -21 -13 1 -17 -7
-16 -34 1 -68 19 -130 37 -130 6 0 2 -6 -9 -14 -19 -14 -18 -15 3 -13 12 0 19
5 17 9 -3 4 2 8 10 8 9 0 16 4 16 10 0 5 -6 7 -14 4 -9 -4 -15 7 -20 37 -4 23
-4 44 -1 47 3 3 22 -11 43 -31 39 -38 62 -47 62 -24 0 6 -8 41 -19 77 -13 48
-23 65 -35 64 -14 -2 -15 1 -4 14 14 17 14 17 -37 -4 -8 -3 -15 -1 -15 5 0 6
6 11 14 11 8 0 18 5 21 10 3 6 5 9 3 9 -2 -1 -14 -4 -26 -6z m34 -70 c-3 -3 0
-13 7 -21 9 -11 4 -11 -15 2 -27 18 -35 36 -22 49 4 3 13 -1 21 -9 9 -8 13
-18 9 -21z"/>
<path d="M5240 8280 l-35 -7 43 -2 c23 0 42 4 42 9 0 6 -3 9 -7 9 -5 -1 -24
-5 -43 -9z"/>
<path d="M5292 8270 c-18 -30 -14 -36 8 -12 21 22 25 32 12 32 -4 0 -13 -9
-20 -20z"/>
<path d="M5500 8269 c0 -17 -4 -20 -22 -16 -21 5 -21 5 -5 -7 14 -11 16 -22
11 -60 -4 -25 -11 -46 -15 -46 -5 0 -9 -7 -9 -15 0 -8 5 -15 11 -15 6 0 8 -7
5 -16 -3 -8 -2 -12 4 -9 6 3 10 13 10 21 0 8 5 14 10 14 6 0 10 11 10 25 0 35
26 42 54 16 15 -14 29 -19 41 -15 11 5 21 1 27 -9 5 -10 19 -17 31 -16 22 0
22 0 1 9 -22 9 -64 54 -109 118 -33 45 -55 54 -55 21z"/>
<path d="M5681 8264 c0 -11 3 -14 6 -6 3 7 2 16 -1 19 -3 4 -6 -2 -5 -13z"/>
<path d="M5113 8257 c-42 -6 -63 -14 -63 -23 0 -8 -7 -14 -16 -14 -9 0 -12 5
-8 12 5 8 2 9 -10 5 -10 -4 -20 -7 -22 -7 -2 0 -4 -8 -3 -17 0 -10 3 -13 5 -7
3 6 16 9 29 6 19 -3 25 -11 25 -29 0 -15 -4 -22 -11 -18 -6 4 -8 13 -5 21 6
17 6 17 -68 -1 -33 -8 -63 -12 -68 -9 -4 3 -8 -2 -8 -10 0 -9 11 -16 27 -18
24 -3 28 -9 38 -58 9 -52 12 -55 39 -55 16 0 31 -6 33 -12 3 -7 9 -13 15 -13
6 0 5 6 -2 15 -18 22 -8 28 45 27 43 -1 45 0 34 19 -6 11 -8 27 -5 35 3 8 1
14 -4 14 -6 0 -10 8 -10 19 0 10 -6 37 -14 59 -12 34 -12 40 0 38 7 -1 17 -5
20 -9 12 -12 22 -8 27 11 4 15 5 15 6 -2 1 -12 6 -16 17 -12 11 4 8 -3 -8 -23
-13 -15 -27 -26 -33 -23 -5 3 -4 -1 3 -9 15 -17 16 -33 0 -23 -6 4 2 -9 18
-29 16 -20 33 -37 37 -37 5 0 5 -5 2 -10 -8 -13 38 -4 73 13 27 13 56 68 49
94 -3 13 -5 11 -7 -7 -1 -23 -2 -23 -9 -5 -5 11 -5 25 0 31 6 7 4 16 -6 24
-10 9 -15 9 -15 1 0 -6 5 -11 12 -11 6 0 8 -3 5 -7 -4 -3 -16 2 -28 13 -12 10
-23 18 -25 17 -2 -2 -10 -3 -16 -2 -7 0 -4 4 7 9 19 8 19 9 -2 9 -15 1 -23 -5
-24 -16 0 -11 -3 -13 -6 -5 -2 6 -12 12 -21 12 -10 1 -4 7 13 15 35 16 24 16
-62 2z m-71 -100 c22 -17 34 -82 17 -93 -7 -4 -14 -3 -17 4 -2 6 -10 8 -18 5
-13 -5 -13 -7 -2 -14 10 -7 9 -9 -4 -9 -12 0 -19 13 -25 53 -11 64 8 85 49 54z"/>
<path d="M5002 8125 c0 -16 2 -22 5 -12 2 9 2 23 0 30 -3 6 -5 -1 -5 -18z"/>
<path d="M5022 8110 c0 -14 2 -19 5 -12 2 6 2 18 0 25 -3 6 -5 1 -5 -13z"/>
<path d="M5045 8100 c-3 -5 -1 -10 4 -10 6 0 11 5 11 10 0 6 -2 10 -4 10 -3 0
-8 -4 -11 -10z"/>
<path d="M5850 8249 c0 -5 -5 -7 -12 -3 -7 4 -8 3 -4 -4 4 -6 13 -9 21 -5 17
6 20 23 5 23 -5 0 -10 -5 -10 -11z"/>
<path d="M5435 8230 c-3 -5 -2 -10 4 -10 5 0 13 5 16 10 3 6 2 10 -4 10 -5 0
-13 -4 -16 -10z"/>
<path d="M4943 8223 c-7 -3 -13 -9 -13 -15 0 -6 7 -4 17 3 15 12 16 12 10 -3
-4 -12 -2 -15 9 -11 33 12 11 37 -23 26z"/>
<path d="M5463 8215 c-3 -9 -3 -18 -1 -21 3 -3 8 4 11 16 6 23 -1 27 -10 5z"/>
<path d="M5120 8210 c-8 -5 -12 -11 -9 -14 2 -3 11 -1 19 4 8 5 12 11 9 14 -2
3 -11 1 -19 -4z"/>
<path d="M4830 8200 c0 -5 4 -10 9 -10 6 0 13 5 16 10 3 6 -1 10 -9 10 -9 0
-16 -4 -16 -10z"/>
<path d="M4865 8192 c-3 -9 -1 -20 5 -26 8 -8 9 -6 5 6 -5 13 0 17 22 20 l28
3 -27 6 c-19 4 -29 1 -33 -9z"/>
<path d="M4758 8183 c12 -2 30 -2 40 0 9 3 -1 5 -23 4 -22 0 -30 -2 -17 -4z"/>
<path d="M5870 8180 c8 -5 22 -10 30 -10 13 0 13 1 0 10 -8 5 -22 10 -30 10
-13 0 -13 -1 0 -10z"/>
<path d="M4677 8173 c19 -4 21 -8 13 -24 -6 -10 -17 -19 -25 -19 -12 0 -14 -9
-11 -37 3 -20 0 -43 -6 -50 -7 -9 -6 -20 6 -39 25 -37 42 -25 38 27 l-4 43 34
-36 c18 -20 45 -38 60 -41 26 -4 26 -3 13 17 -14 19 -32 110 -27 129 1 5 -5 6
-15 3 -23 -7 -48 8 -39 23 5 7 -4 11 -26 10 -23 -1 -26 -3 -11 -6z m65 -73 l5
-31 -23 28 c-29 35 -32 58 -5 44 10 -6 21 -24 23 -41z m-72 -88 c0 -15 -2 -15
-10 -2 -13 20 -13 33 0 25 6 -3 10 -14 10 -23z"/>
<path d="M4810 8154 c-6 -14 -13 -23 -17 -21 -7 4 -9 -27 -4 -63 2 -16 21 -11
21 6 0 9 -5 12 -11 8 -7 -4 -10 -3 -8 2 2 5 11 26 19 47 8 20 17 37 21 37 9 0
0 -41 -12 -56 -5 -6 -6 -14 -3 -17 10 -10 -6 -58 -16 -52 -6 3 -10 1 -10 -4 0
-6 5 -11 10 -11 6 0 9 -5 8 -12 -2 -6 4 -13 13 -15 11 -3 18 5 22 27 7 32 31
41 41 14 9 -22 8 -26 -6 -18 -7 5 -8 3 -3 -6 6 -9 4 -12 -6 -8 -8 2 -22 -4
-31 -14 -10 -10 -14 -18 -9 -18 6 0 13 5 16 10 11 18 27 11 16 -7 -7 -13 -43
-23 -148 -40 -88 -14 -141 -19 -147 -13 -7 7 1 10 21 10 32 0 64 22 62 43 0 9
-2 8 -6 0 -2 -7 -9 -13 -14 -13 -6 0 -8 4 -5 9 4 5 -3 7 -14 4 -11 -3 -28 1
-38 8 -15 12 -16 12 -5 -2 7 -9 10 -18 7 -22 -3 -3 3 -3 14 0 11 2 23 0 26 -6
5 -7 -6 -11 -29 -11 -31 0 -35 -3 -31 -18 6 -19 -13 -23 -211 -47 -26 -4 -31
10 -8 19 17 6 20 26 4 26 -5 0 -7 -4 -4 -10 6 -10 -6 -14 -35 -11 -13 2 -13 1
0 -8 19 -13 11 -20 -31 -26 -31 -5 -32 -4 -11 6 12 7 22 16 22 21 0 4 -18 -4
-40 -18 -29 -20 -47 -25 -69 -21 -16 4 -31 2 -33 -3 -2 -5 -27 -11 -56 -14
-32 -3 -50 -1 -46 5 3 5 14 7 24 4 22 -7 36 23 15 32 -10 3 -27 -7 -46 -26
-19 -20 -39 -31 -52 -30 -12 1 -29 -1 -37 -4 -17 -7 -111 -23 -187 -32 -35 -4
-53 -3 -53 4 0 6 7 11 15 11 8 0 15 4 15 10 0 5 -6 7 -13 4 -14 -5 -17 29 -4
42 4 4 7 17 6 28 -1 18 -2 18 -8 -4 -7 -25 -8 -24 -15 8 -4 18 -12 30 -16 27
-5 -3 -3 -23 5 -45 10 -27 11 -42 3 -46 -7 -4 -5 -9 3 -15 12 -7 12 -9 0 -9
-7 0 -11 -6 -7 -15 3 -8 2 -14 -2 -14 -29 5 -42 -3 -42 -24 0 -18 5 -23 23
-23 12 1 24 4 27 7 7 8 176 33 228 33 23 0 42 3 42 7 0 3 21 9 48 13 68 11
179 25 237 32 28 3 70 10 94 15 24 5 46 7 49 5 2 -3 12 -1 21 3 9 5 36 12 61
15 25 3 86 13 135 20 50 8 136 22 192 31 56 9 107 14 113 10 5 -3 10 -2 10 3
0 5 11 12 25 14 16 4 25 1 25 -8 0 -15 -62 -29 -85 -20 -9 3 -14 2 -11 -3 7
-10 -90 -25 -104 -16 -6 3 -10 1 -10 -6 0 -8 -11 -10 -35 -6 -20 3 -33 2 -30
-3 3 -4 -10 -9 -28 -10 -17 -1 -51 -2 -74 -3 -22 -1 -39 -5 -37 -9 4 -6 -8 -8
-88 -10 -20 -1 -35 -4 -33 -8 2 -4 -12 -6 -31 -5 -20 0 -38 -3 -40 -7 -3 -5
-18 -7 -32 -6 -15 1 -32 -1 -37 -4 -12 -8 -109 -22 -152 -23 -18 0 -33 -4 -33
-9 0 -5 -18 -6 -40 -3 -25 3 -38 1 -34 -5 3 -5 0 -8 -7 -7 -8 2 -34 -1 -59 -6
-25 -4 -61 -9 -80 -10 -19 -1 -43 -6 -53 -10 -10 -4 -31 -5 -48 -1 -16 3 -28
2 -25 -2 3 -5 0 -9 -7 -10 -77 -7 -111 -12 -117 -19 -4 -4 -10 -66 -14 -138
-8 -180 -31 -393 -66 -620 -62 -401 -147 -732 -312 -1220 -44 -131 -226 -573
-279 -676 l-18 -36 91 -7 c114 -9 221 -31 254 -52 25 -17 28 -16 103 24 43 23
108 53 145 67 66 25 156 34 156 15 0 -5 -7 -7 -15 -3 -40 15 -195 -55 -195
-88 0 -14 50 -59 66 -59 3 0 25 14 48 32 22 18 33 23 24 13 -19 -23 -8 -55 20
-56 14 0 13 -2 -3 -8 -12 -5 -23 -4 -27 3 -6 8 -8 7 -8 -1 0 -7 -3 -12 -7 -11
-15 4 -53 -13 -53 -23 0 -6 -5 -7 -10 -4 -6 4 -16 2 -23 -3 -7 -5 -32 -12 -57
-15 -25 -3 -63 -8 -85 -11 -22 -3 -2 5 44 19 105 31 127 56 76 89 -16 11 -25
26 -25 42 l0 26 -67 -37 c-83 -45 -90 -52 -75 -67 7 -7 8 -17 3 -27 -12 -23
-24 -99 -17 -110 4 -6 28 -2 63 10 31 11 61 18 67 16 11 -4 -134 -58 -254 -94
-47 -14 -88 -31 -92 -37 -17 -26 -8 -66 17 -78 14 -6 25 -15 25 -20 0 -12 260
0 355 17 44 8 103 18 130 22 41 7 51 12 53 31 2 12 14 29 27 38 24 16 130 39
228 49 43 5 56 10 49 18 -18 22 -45 163 -38 193 23 92 256 214 466 245 103 15
235 8 277 -14 18 -10 39 -30 47 -46 15 -28 15 -28 141 -35 215 -11 335 -34
357 -69 4 -7 8 -35 8 -64 0 -50 0 -51 38 -62 l37 -10 -37 2 c-44 3 -60 -19
-25 -32 43 -17 50 -35 42 -116 -6 -62 -4 -75 8 -75 8 0 20 7 27 15 9 11 16 13
23 6 14 -14 -20 -52 -42 -49 -8 2 -17 -5 -19 -15 -3 -17 2 -18 80 -12 45 4 87
11 92 15 4 5 12 59 17 122 19 264 107 621 389 1588 52 179 131 517 155 670 70
431 81 714 39 1058 -5 42 -11 55 -28 62 -11 4 -24 3 -27 -1 -7 -12 -217 -52
-236 -45 -8 3 -11 2 -8 -3 6 -11 -71 -25 -129 -24 -26 0 -34 -2 -25 -9 11 -7
9 -8 -6 -7 -11 1 -27 -1 -36 -5 -8 -4 -36 -8 -62 -9 -26 -1 -47 -6 -47 -10 0
-5 -12 -8 -27 -6 -16 1 -35 -1 -43 -4 -29 -12 -122 -25 -141 -20 -11 3 -19 0
-19 -6 0 -8 -11 -10 -32 -7 -18 3 -35 1 -38 -4 -3 -4 -37 -13 -75 -18 -39 -6
-78 -13 -87 -17 -12 -5 -18 -2 -18 7 0 9 20 17 55 24 38 7 55 7 55 -1 0 -6 3
-6 8 1 9 14 197 48 218 40 8 -3 13 -2 10 2 -6 11 179 46 193 37 6 -3 11 -2 11
3 0 5 30 14 68 21 37 7 81 16 97 19 17 3 47 6 67 7 20 0 34 2 32 5 -7 6 119
31 133 26 6 -3 13 -1 15 4 2 5 24 11 50 12 46 3 66 18 52 39 -7 12 -56 12 -87
0 -40 -16 -112 -18 -110 -3 2 6 -2 12 -8 12 -6 0 -8 -9 -4 -22 7 -23 7 -23 -9
-3 -9 11 -15 14 -14 6 3 -15 -118 -50 -189 -54 -22 -1 -39 -5 -37 -8 2 -4 -15
-9 -39 -13 -23 -3 -80 -13 -127 -22 -47 -9 -98 -17 -115 -19 -16 -1 -38 -6
-47 -10 -25 -10 -90 -11 -113 -1 -20 9 -20 9 0 -7 19 -15 19 -15 -5 -15 -33 0
-80 -8 -168 -26 -87 -19 -102 -20 -102 -5 0 6 6 9 14 6 8 -3 20 2 28 11 12 15
11 16 -4 4 -9 -8 -19 -9 -22 -3 -3 5 7 14 24 19 16 6 32 7 35 2 3 -4 0 -10 -7
-12 -9 -3 -9 -6 0 -12 7 -4 12 -2 12 4 0 6 10 8 25 4 16 -4 25 -2 25 6 0 6 -4
9 -9 6 -15 -9 -41 5 -41 22 0 8 -3 12 -7 9 -3 -4 -12 1 -19 12 -14 19 -8 65 7
55 5 -3 9 0 9 6 0 7 -6 10 -14 7 -8 -3 -17 -1 -19 6 -2 7 -8 9 -12 5 -4 -4 -2
-14 5 -23 7 -9 10 -18 7 -21 -3 -3 -11 5 -17 18 -16 29 -51 68 -62 68 -5 0
-13 -12 -18 -26z m-730 -278 c0 -3 -4 -8 -10 -11 -5 -3 -10 -1 -10 4 0 6 5 11
10 11 6 0 10 -2 10 -4z m-53 -239 c47 -43 67 -102 61 -185 -5 -69 -33 -146
-49 -136 -5 3 -6 -2 -3 -11 7 -17 -77 -107 -111 -119 -41 -15 -97 -17 -113 -4
-12 10 -14 10 -8 1 15 -25 -6 -12 -44 28 -21 22 -36 47 -34 54 3 7 1 16 -5 20
-6 3 -11 35 -11 70 0 80 18 168 32 159 6 -4 8 -2 5 4 -10 15 3 43 16 35 6 -3
7 -1 3 5 -4 7 4 24 18 39 15 15 26 31 26 36 0 4 23 18 52 31 44 20 58 21 92
13 22 -6 55 -24 73 -40z m-133 -2563 c19 -7 21 -41 4 -58 -22 -21 -88 -58 -88
-49 0 4 17 17 37 28 43 23 54 52 27 72 -19 14 -7 17 20 7z m-24 -135 c0 -7
-10 -9 -25 -6 -14 2 -54 -2 -88 -9 -79 -17 -99 -17 -72 -1 18 10 87 22 158 26
15 0 27 -4 27 -10z m-34 -38 c-3 -5 -32 -12 -63 -16 -32 -3 -107 -22 -167 -41
-60 -19 -111 -33 -113 -30 -3 2 23 12 57 22 38 11 57 20 49 25 -16 10 13 17
129 34 112 16 114 17 108 6z"/>
<path d="M3878 7653 c7 -3 16 -2 19 1 4 3 -2 6 -13 5 -11 0 -14 -3 -6 -6z"/>
<path d="M3830 7630 c0 -5 5 -10 10 -10 6 0 10 5 10 10 0 6 -4 10 -10 10 -5 0
-10 -4 -10 -10z"/>
<path d="M3910 7611 c0 -6 4 -13 10 -16 6 -3 7 1 4 9 -7 18 -14 21 -14 7z"/>
<path d="M3990 7616 c0 -2 8 -10 18 -17 15 -13 16 -12 3 4 -13 16 -21 21 -21
13z"/>
<path d="M4030 7559 c0 -13 5 -31 10 -39 7 -11 8 -5 4 20 -8 43 -14 51 -14 19z"/>
<path d="M4056 7545 c8 -37 14 -45 14 -19 0 10 -5 26 -10 34 -8 11 -9 7 -4
-15z"/>
<path d="M3795 7529 c-4 -6 -14 -8 -24 -4 -11 4 -13 3 -5 -5 12 -12 44 -4 44
11 0 12 -7 11 -15 -2z"/>
<path d="M4037 7360 c-3 -11 -2 -22 2 -24 4 -3 8 6 9 20 2 29 -4 31 -11 4z"/>
<path d="M3730 7300 c0 -5 5 -10 10 -10 6 0 10 5 10 10 0 6 -4 10 -10 10 -5 0
-10 -4 -10 -10z"/>
<path d="M3760 7230 c0 -5 5 -10 11 -10 5 0 7 5 4 10 -3 6 -8 10 -11 10 -2 0
-4 -4 -4 -10z"/>
<path d="M3790 7210 c0 -5 5 -10 11 -10 5 0 7 5 4 10 -3 6 -8 10 -11 10 -2 0
-4 -4 -4 -10z"/>
<path d="M3830 7201 c0 -6 4 -13 10 -16 6 -3 7 1 4 9 -7 18 -14 21 -14 7z"/>
<path d="M4583 8163 c-13 -3 -23 -8 -23 -13 0 -5 -16 -7 -34 -5 -39 5 -54 -8
-36 -30 11 -13 7 -15 -19 -15 -25 0 -31 4 -32 23 -1 21 -1 21 -8 -3 -5 -19
-15 -26 -41 -30 l-35 -5 3 -55 c4 -101 6 -109 20 -98 15 13 16 -4 0 -20 -9 -9
-9 -12 0 -12 7 0 12 5 12 11 0 8 6 7 17 -2 15 -12 16 -12 8 1 -16 25 -14 39 3
33 14 -4 14 -2 -2 11 -10 8 -16 20 -14 27 2 7 12 0 22 -16 15 -23 16 -29 5
-36 -16 -10 -15 -10 24 -13 25 -1 26 0 11 11 -28 20 -8 27 27 9 18 -9 37 -16
43 -16 17 1 -26 30 -44 30 -24 0 -55 64 -42 87 8 13 7 22 -5 35 -10 11 -12 18
-5 18 10 0 31 -27 65 -86 3 -6 0 -11 -8 -11 -8 0 -12 4 -9 9 3 4 0 8 -5 8 -22
0 -10 -30 12 -31 20 0 21 -1 2 -8 -16 -7 -14 -9 14 -14 36 -7 55 -1 45 14 -3
5 0 42 7 82 8 40 13 78 12 85 0 8 5 11 13 8 8 -3 14 -1 14 4 0 6 7 10 16 10 8
0 12 -4 9 -10 -4 -6 1 -7 12 -3 15 5 16 3 6 -8 -7 -7 -13 -18 -13 -23 0 -6 7
0 16 12 8 12 20 20 25 17 5 -4 9 -1 9 5 0 7 -7 10 -15 6 -8 -3 -15 -2 -15 2 0
9 -34 11 -67 5z m-73 -33 c0 -5 -4 -10 -10 -10 -5 0 -10 5 -10 10 0 6 5 10 10
10 6 0 10 -4 10 -10z m26 -22 c-4 -47 -5 -48 -18 -48 -9 0 -9 3 0 12 7 7 12
17 12 23 0 5 -4 3 -10 -5 -15 -23 -22 -5 -9 24 17 36 28 33 25 -6z m26 10 c-7
-7 -12 -8 -12 -2 0 14 12 26 19 19 2 -3 -1 -11 -7 -17z"/>
<path d="M4768 8163 c6 -2 18 -2 25 0 6 3 1 5 -13 5 -14 0 -19 -2 -12 -5z"/>
<path d="M5527 8163 c-3 -5 -1 -17 4 -28 6 -17 7 -16 6 8 -1 28 -3 32 -10 20z"/>
<path d="M5360 8156 c0 -16 45 -66 59 -66 14 0 14 -1 1 -10 -8 -5 -10 -10 -5
-10 6 1 19 7 29 15 19 14 18 15 -12 15 -18 0 -32 4 -32 8 0 5 -9 19 -20 32
-11 13 -20 20 -20 16z"/>
<path d="M5735 8150 c3 -5 11 -10 16 -10 6 0 7 5 4 10 -3 6 -11 10 -16 10 -6
0 -7 -4 -4 -10z"/>
<path d="M5705 8140 c-3 -5 1 -10 10 -10 9 0 13 5 10 10 -3 6 -8 10 -10 10 -2
0 -7 -4 -10 -10z"/>
<path d="M4450 8125 c0 -8 4 -15 8 -15 5 0 9 7 9 15 0 8 -4 15 -9 15 -4 0 -8
-7 -8 -15z"/>
<path d="M5600 8129 c0 -5 5 -7 10 -4 6 3 10 8 10 11 0 2 -4 4 -10 4 -5 0 -10
-5 -10 -11z"/>
<path d="M4375 8119 c-4 -5 -11 -7 -16 -4 -17 11 -99 -7 -99 -21 0 -8 10 -14
23 -14 21 0 22 -4 22 -62 0 -39 -4 -63 -12 -65 -16 -6 -27 40 -20 85 5 25 3
32 -3 22 -8 -12 -10 -12 -10 -1 0 8 -6 11 -15 7 -9 -3 -15 -1 -14 7 3 22 -1
37 -9 37 -5 0 -8 -10 -7 -22 1 -13 -3 -26 -9 -30 -7 -5 -7 -11 3 -20 10 -10
12 -10 7 0 -4 6 -2 12 4 12 7 0 11 -16 9 -42 -4 -61 14 -88 56 -88 38 0 72 34
55 55 -5 7 -7 14 -5 17 3 3 2 24 -4 47 -7 33 -6 41 5 41 8 0 14 6 14 13 0 7
13 12 32 12 17 0 33 5 35 10 4 13 -35 17 -42 4z m-40 -19 c4 -6 -7 -10 -27 -9
-31 1 -32 1 -8 9 14 4 26 8 27 9 1 1 5 -3 8 -9z"/>
<path d="M4593 8115 c-9 -24 1 -27 15 -5 8 13 8 20 2 20 -6 0 -13 -7 -17 -15z"/>
<path d="M5303 8096 c0 -18 3 -24 9 -18 7 7 7 16 0 28 -8 14 -9 13 -9 -10z"/>
<path d="M5505 8109 c-9 -14 -2 -20 14 -10 8 6 9 11 3 15 -6 3 -14 1 -17 -5z"/>
<path d="M5120 8104 c0 -5 9 -20 19 -33 13 -17 18 -19 18 -7 0 9 -9 23 -19 33
-10 9 -18 12 -18 7z"/>
<path d="M4185 8090 c-3 -5 -1 -10 4 -10 6 0 11 5 11 10 0 6 -2 10 -4 10 -3 0
-8 -4 -11 -10z"/>
<path d="M4616 8063 c8 -47 14 -55 14 -19 0 15 4 25 8 22 5 -3 9 1 9 9 0 12
-3 12 -16 2 -12 -10 -14 -9 -8 6 3 9 2 17 -4 17 -6 0 -7 -14 -3 -37z"/>
<path d="M5250 8069 c-19 -16 -29 -29 -22 -29 13 0 67 49 61 55 -2 2 -20 -10
-39 -26z"/>
<path d="M4090 8074 c0 -8 -10 -14 -22 -13 -22 0 -22 1 -3 9 14 6 8 7 -20 4
-22 -3 -54 -6 -72 -6 -26 0 -30 -3 -19 -13 7 -7 21 -14 32 -17 11 -2 20 -13
22 -27 2 -15 0 -21 -7 -17 -6 4 -11 2 -11 -3 0 -6 7 -11 15 -11 8 0 15 9 15
20 0 11 5 20 10 20 6 0 10 4 10 9 0 5 -7 8 -16 7 -9 0 -19 4 -21 9 -2 6 6 11
17 11 11 0 20 -3 20 -6 0 -10 59 1 66 11 3 5 10 9 16 9 6 0 1 -9 -12 -20 -13
-11 -21 -23 -17 -26 7 -7 40 30 43 49 1 9 -7 15 -22 15 -14 0 -24 -6 -24 -14z"/>
<path d="M4930 8075 c0 -8 4 -15 10 -15 5 0 7 7 4 15 -4 8 -8 15 -10 15 -2 0
-4 -7 -4 -15z"/>
<path d="M4150 8072 c0 -4 10 -9 22 -9 18 -2 20 0 8 7 -18 12 -30 13 -30 2z"/>
<path d="M4580 8055 c0 -14 2 -25 4 -25 2 0 6 11 8 25 3 14 1 25 -3 25 -5 0
-9 -11 -9 -25z"/>
<path d="M3885 8050 c5 -7 -9 -9 -39 -5 -32 5 -46 3 -46 -5 0 -7 7 -10 15 -6
8 3 15 1 15 -5 0 -6 9 -8 20 -4 11 3 20 2 20 -4 0 -5 -12 -11 -27 -13 -16 -2
-27 -10 -29 -21 -1 -10 -11 -25 -21 -33 -17 -14 -17 -15 3 -9 19 5 21 1 20
-48 -1 -47 1 -53 17 -49 17 4 21 13 18 45 -3 25 8 21 19 -9 15 -39 33 -24 35
30 1 44 0 45 -11 24 -8 -13 -13 -19 -14 -15 0 5 5 17 10 28 8 13 7 25 0 39 -6
12 -7 20 -1 20 5 0 12 -8 14 -17 4 -14 5 -12 6 5 1 14 -5 22 -15 22 -8 0 -13
4 -9 10 3 5 12 7 20 3 8 -3 23 -2 32 1 15 6 15 8 3 16 -21 13 -63 13 -55 0z
m42 -6 c-3 -3 -12 -4 -19 -1 -8 3 -5 6 6 6 11 1 17 -2 13 -5z"/>
<path d="M5180 8050 c-20 -12 -5 -24 16 -12 9 5 12 12 7 15 -5 3 -15 2 -23 -3z"/>
<path d="M4136 8038 c-12 -39 -13 -58 -2 -62 7 -3 7 -5 -2 -5 -7 -1 -17 9 -22
22 l-9 22 0 -22 c-1 -26 15 -38 48 -38 13 0 26 -7 29 -15 4 -13 3 -13 -11 -2
-10 9 -22 10 -32 5 -14 -8 -14 -11 4 -27 24 -22 67 -15 74 12 4 15 5 15 6 0 0
-9 -6 -24 -15 -32 -8 -9 -11 -16 -6 -16 5 0 15 7 23 16 10 12 10 22 1 46 -6
17 -9 35 -6 39 3 5 -1 6 -9 4 -7 -3 -22 3 -32 15 -10 11 -13 20 -7 20 7 0 12
-6 12 -12 0 -9 3 -9 9 1 5 8 7 20 4 28 -6 17 -52 17 -57 1z"/>
<path d="M4455 8030 c-4 -12 -5 -24 -2 -27 3 -2 8 5 12 17 4 12 5 24 2 27 -3
2 -8 -5 -12 -17z"/>
<path d="M3730 8030 c-23 -7 -23 -8 -3 -9 12 -1 25 4 28 9 3 6 5 10 3 9 -2 -1
-14 -5 -28 -9z"/>
<path d="M3765 8019 c-4 -11 -19 -22 -36 -26 -16 -3 -34 -12 -41 -21 -9 -10
-9 -13 -1 -9 7 4 13 0 16 -10 4 -17 5 -17 6 0 1 23 21 22 21 -2 0 -11 -8 -22
-17 -24 -16 -4 -16 -5 1 -6 15 -1 17 -8 14 -41 -2 -24 1 -41 8 -44 22 -8 34
18 34 75 0 49 3 57 21 62 13 4 18 10 14 17 -4 7 -2 15 4 19 7 5 3 12 -13 19
-22 10 -26 8 -31 -9z m25 -9 c0 -5 -4 -10 -10 -10 -5 0 -10 5 -10 10 0 6 5 10
10 10 6 0 10 -4 10 -10z"/>
<path d="M4042 8015 c-7 -14 -13 -38 -13 -53 -1 -15 -3 -20 -6 -11 -5 21 -45
32 -55 16 -4 -7 -6 -3 -5 10 0 12 10 24 20 27 26 7 11 27 -16 22 -12 -3 -28
-5 -35 -5 -10 -1 -13 -17 -10 -66 2 -39 -1 -65 -7 -65 -28 -1 25 -20 55 -20
25 0 31 -3 23 -11 -8 -8 -20 -9 -42 -1 -23 8 -32 7 -41 -3 -8 -10 -8 -15 1
-20 6 -4 15 -2 19 5 5 7 16 9 29 5 21 -6 51 8 51 26 0 4 -7 15 -16 24 -14 13
-19 14 -25 3 -6 -9 -9 -4 -9 15 0 33 22 36 39 5 6 -13 9 -15 7 -5 -3 9 -1 17
5 17 7 0 9 -10 5 -25 -5 -18 -2 -25 9 -25 8 0 15 5 15 10 0 6 7 10 15 10 8 0
15 5 15 11 0 5 -4 7 -10 4 -5 -3 -10 -1 -10 4 0 18 19 12 31 -10 7 -14 17 -19
30 -16 23 6 26 -8 3 -17 -9 -4 -14 -9 -11 -13 4 -3 13 0 21 6 8 7 25 10 38 6
20 -5 19 -3 -4 10 -18 10 -39 40 -60 85 -18 39 -35 70 -39 70 -3 0 -11 -11
-17 -25z m-32 -65 c0 -5 -4 -10 -10 -10 -5 0 -10 5 -10 10 0 6 5 10 10 10 6 0
10 -4 10 -10z"/>
<path d="M5050 8036 c0 -2 7 -6 15 -10 8 -3 15 -1 15 4 0 6 -7 10 -15 10 -8 0
-15 -2 -15 -4z"/>
<path d="M4289 8028 c-6 -14 -6 -59 0 -62 4 -3 8 10 8 29 0 30 -3 43 -8 33z"/>
<path d="M3690 8010 c13 -8 12 -10 -3 -10 -11 0 -15 -5 -11 -11 4 -8 9 -8 17
0 6 6 20 11 31 11 26 0 18 6 -19 14 -22 5 -26 4 -15 -4z"/>
<path d="M4205 8010 c-3 -5 -1 -10 4 -10 6 0 11 5 11 10 0 6 -2 10 -4 10 -3 0
-8 -4 -11 -10z"/>
<path d="M4710 8015 c0 -4 8 -14 17 -20 16 -12 14 -14 -17 -23 -31 -9 -32 -10
-9 -11 23 -1 60 24 48 32 -2 1 -12 9 -21 16 -10 7 -18 10 -18 6z"/>
<path d="M4778 7978 c5 -5 16 -8 23 -6 8 3 3 7 -10 11 -17 4 -21 3 -13 -5z"/>
<path d="M3656 7958 c-7 -28 -8 -173 -1 -166 5 5 15 188 10 188 -2 0 -5 -10
-9 -22z"/>
<path d="M3793 7885 c-7 -8 -9 -16 -4 -19 5 -3 12 1 15 10 8 22 4 25 -11 9z"/>
<path d="M3759 7828 c-11 -21 -11 -22 4 -9 14 11 20 11 34 0 15 -13 15 -12 4
9 -6 12 -16 22 -21 22 -5 0 -15 -10 -21 -22z"/>
<path d="M3880 7841 c0 -7 -4 -9 -10 -6 -5 3 -10 1 -10 -4 0 -6 4 -11 9 -11
13 0 25 20 17 27 -3 4 -6 1 -6 -6z"/>
<path d="M3105 7051 c-24 -10 26 -17 179 -27 87 -6 110 -4 117 7 5 8 9 17 9
22 0 9 -279 8 -305 -2z"/>
<path d="M3060 6966 c0 -57 3 -67 23 -80 26 -16 143 -36 216 -36 l51 0 0 73 0
73 -130 12 c-71 7 -136 15 -145 18 -12 5 -15 -5 -15 -60z"/>
<path d="M3381 6974 c0 -11 3 -14 6 -6 3 7 2 16 -1 19 -3 4 -6 -2 -5 -13z"/>
<path d="M3362 6948 c1 -16 6 -28 10 -28 11 0 10 22 -2 40 -8 11 -9 9 -8 -12z"/>
<path d="M3020 6851 c-43 -6 -44 -7 -15 -14 40 -9 346 -30 352 -23 3 2 -17 7
-44 10 -26 4 -82 11 -123 17 -41 5 -86 12 -100 13 -14 2 -45 1 -70 -3z"/>
<path d="M2960 6748 l0 -75 68 -12 c37 -7 119 -16 184 -18 l116 -6 7 59 c4 33
9 67 11 77 4 13 -1 17 -23 17 -43 1 -251 18 -310 26 l-53 7 0 -75z"/>
<path d="M2950 6576 c0 -61 2 -66 28 -80 29 -15 128 -32 234 -41 l66 -5 12 34
c6 18 12 42 14 52 2 10 7 30 11 44 6 24 4 25 -52 28 -90 4 -259 21 -288 28
-25 6 -25 6 -25 -60z"/>
<path d="M2825 6520 c-87 -6 -75 -16 34 -25 78 -7 83 -6 73 11 -11 20 -14 21
-107 14z"/>
<path d="M2742 6414 l3 -79 80 -12 c44 -6 157 -15 250 -19 l171 -7 12 52 c18
81 21 78 -65 86 -43 4 -112 13 -153 20 -41 7 -112 16 -157 19 -46 4 -96 9
-113 13 l-31 6 3 -79z"/>
<path d="M6175 6441 c-15 -15 3 -21 62 -21 36 0 63 3 59 7 -8 8 -115 21 -121
14z"/>
<path d="M6293 6402 c-13 -2 -23 -7 -23 -12 0 -5 7 -7 15 -4 13 5 13 0 0 -42
-8 -26 -12 -50 -9 -53 2 -3 -6 -11 -18 -18 l-23 -12 25 -1 c14 0 36 7 48 16
18 12 22 25 22 69 0 58 -3 63 -37 57z"/>
<path d="M6155 6339 c-10 -30 -2 -32 12 -3 6 13 7 24 3 24 -5 0 -12 -9 -15
-21z"/>
<path d="M6250 6345 c0 -8 2 -15 4 -15 2 0 6 7 10 15 3 8 1 15 -4 15 -6 0 -10
-7 -10 -15z"/>
<path d="M2800 6281 c0 -20 6 -20 211 -23 116 -2 213 0 216 5 2 4 -8 7 -24 7
-56 1 -329 20 -365 26 -34 5 -38 3 -38 -15z"/>
<path d="M6141 6284 c0 -11 3 -14 6 -6 3 7 2 16 -1 19 -3 4 -6 -2 -5 -13z"/>
<path d="M6218 6283 c6 -2 18 -2 25 0 6 3 1 5 -13 5 -14 0 -19 -2 -12 -5z"/>
<path d="M6208 6253 c7 -3 16 -2 19 1 4 3 -2 6 -13 5 -11 0 -14 -3 -6 -6z"/>
<path d="M2610 6228 c-101 -9 -118 -13 -109 -22 10 -10 347 -13 504 -5 182 9
219 14 210 29 -8 13 -461 11 -605 -2z"/>
<path d="M6268 6213 c-18 -3 -25 -9 -21 -19 3 -9 -1 -14 -13 -14 -12 0 -15 -3
-7 -8 8 -5 7 -21 -7 -61 l-19 -53 51 6 c29 4 55 9 59 12 4 2 7 35 8 74 1 51
-3 70 -12 69 -6 -1 -24 -4 -39 -6z"/>
<path d="M6168 6193 c6 -2 18 -2 25 0 6 3 1 5 -13 5 -14 0 -19 -2 -12 -5z"/>
<path d="M2468 6174 c-2 -9 -1 -39 0 -66 3 -35 9 -51 23 -58 39 -21 130 -31
300 -31 192 -1 292 7 283 23 -4 6 0 14 7 19 10 6 11 9 2 9 -20 0 -17 87 3 98
9 5 -93 8 -253 8 -147 0 -289 3 -315 7 -39 7 -47 5 -50 -9z"/>
<path d="M3168 6183 c6 -2 18 -2 25 0 6 3 1 5 -13 5 -14 0 -19 -2 -12 -5z"/>
<path d="M3131 6124 c0 -11 3 -14 6 -6 3 7 2 16 -1 19 -3 4 -6 -2 -5 -13z"/>
<path d="M6101 6114 c0 -11 3 -14 6 -6 3 7 2 16 -1 19 -3 4 -6 -2 -5 -13z"/>
<path d="M6345 6070 c-4 -6 7 -10 27 -10 25 0 29 3 18 10 -19 13 -37 13 -45 0z"/>
<path d="M6088 6063 c7 -3 16 -2 19 1 4 3 -2 6 -13 5 -11 0 -14 -3 -6 -6z"/>
<path d="M6419 6046 c-5 -6 -108 -14 -178 -15 -30 -1 -52 -4 -49 -7 3 -3 -3
-30 -13 -59 -10 -30 -19 -61 -19 -69 0 -8 -12 -17 -27 -20 -16 -2 25 -3 90 -1
95 3 126 7 162 25 l45 22 0 64 c0 61 -1 69 -11 60z"/>
<path d="M2485 6014 c-11 -1 -55 -6 -99 -9 -52 -5 -75 -10 -68 -17 12 -12 502
-14 587 -1 50 7 23 9 -150 14 -115 4 -219 9 -230 12 -11 2 -29 3 -40 1z"/>
<path d="M6065 6009 c-4 -6 -5 -12 -2 -15 2 -3 7 2 10 11 7 17 1 20 -8 4z"/>
<path d="M3123 5962 c-1 -22 0 -24 9 -8 6 10 6 22 2 26 -5 5 -10 -3 -11 -18z"/>
<path d="M2975 5969 c-43 -7 -594 -12 -665 -6 -27 2 -27 0 -22 -109 l2 -42
118 -12 c203 -22 609 5 647 44 8 7 12 16 9 18 -2 3 0 18 5 34 5 16 12 41 15
57 6 25 4 27 -26 26 -18 -1 -55 -5 -83 -10z"/>
<path d="M6050 5955 c0 -8 2 -15 4 -15 2 0 6 7 10 15 3 8 1 15 -4 15 -6 0 -10
-7 -10 -15z"/>
<path d="M6041 5914 c0 -11 3 -14 6 -6 3 7 2 16 -1 19 -3 4 -6 -2 -5 -13z"/>
<path d="M6069 5909 c5 -6 7 -18 4 -25 -3 -8 -1 -14 5 -14 13 0 9 27 -6 40 -8
7 -9 7 -3 -1z"/>
<path d="M6410 5880 c-11 -7 -4 -10 25 -9 31 0 36 2 20 9 -26 11 -28 11 -45 0z"/>
<path d="M6273 5843 c-110 -3 -153 -7 -153 -15 0 -29 -46 -128 -60 -130 -8 0
8 -4 35 -8 57 -8 219 -5 316 5 l67 8 -1 73 c-1 73 -1 74 -26 72 -14 -1 -95 -4
-178 -5z"/>
<path d="M6033 5833 c9 -2 25 -2 35 0 9 3 1 5 -18 5 -19 0 -27 -2 -17 -5z"/>
<path d="M3031 5809 c-18 -6 -31 -12 -28 -15 7 -8 87 8 87 17 0 11 -15 10 -59
-2z"/>
<path d="M6021 5804 c0 -11 3 -14 6 -6 3 7 2 16 -1 19 -3 4 -6 -2 -5 -13z"/>
<path d="M2362 5701 l3 -76 45 -9 c88 -18 625 -8 572 11 -8 3 -5 11 10 25 15
12 17 18 7 15 -14 -5 -14 -1 3 31 10 20 18 42 18 49 0 18 10 16 27 -4 13 -17
13 -16 4 3 -10 21 -14 21 -283 16 -150 -2 -304 0 -341 5 l-68 10 3 -76z"/>
<path d="M6050 5756 c0 -2 7 -7 16 -10 8 -3 12 -2 9 4 -6 10 -25 14 -25 6z"/>
<path d="M5993 5725 c-3 -9 -3 -18 -1 -21 3 -3 8 4 11 16 6 23 -1 27 -10 5z"/>
<path d="M3030 5709 c0 -5 5 -7 10 -4 6 3 10 8 10 11 0 2 -4 4 -10 4 -5 0 -10
-5 -10 -11z"/>
<path d="M6185 5650 c-104 -3 -176 -7 -160 -9 22 -2 25 -5 11 -8 -14 -4 -16
-7 -6 -13 20 -12 -17 -108 -44 -113 -12 -2 33 -7 99 -12 80 -5 163 -4 250 4
71 7 130 13 131 14 1 1 5 35 8 75 l6 72 -52 -2 c-29 -1 -138 -5 -243 -8z"/>
<path d="M3005 5640 c-3 -5 -1 -10 4 -10 6 0 11 5 11 10 0 6 -2 10 -4 10 -3 0
-8 -4 -11 -10z"/>
<path d="M5956 5623 c-6 -14 -5 -15 5 -6 7 7 10 15 7 18 -3 3 -9 -2 -12 -12z"/>
<path d="M2290 5535 l0 -66 38 -16 c29 -13 82 -18 240 -21 111 -2 232 -1 268
3 58 6 66 9 76 33 5 15 14 34 19 42 5 8 12 22 15 30 3 8 9 22 13 30 7 13 -27
15 -278 15 -157 0 -310 4 -338 8 l-53 8 0 -66z"/>
<path d="M2940 5500 c0 -5 5 -10 11 -10 5 0 7 5 4 10 -3 6 -8 10 -11 10 -2 0
-4 -4 -4 -10z"/>
<path d="M2930 5465 c0 -8 2 -15 4 -15 2 0 6 7 10 15 3 8 1 15 -4 15 -6 0 -10
-7 -10 -15z"/>
<path d="M6160 5470 c-113 -3 -197 -8 -188 -12 11 -4 15 -13 12 -23 -5 -13 -9
-13 -23 -3 -14 12 -14 11 -3 -4 17 -21 7 -74 -16 -87 -28 -16 110 -24 307 -18
102 3 196 9 208 13 21 6 23 12 22 75 l-1 68 -57 -2 c-31 -1 -148 -4 -261 -7z"/>
<path d="M5901 5423 c-1 -6 -4 -20 -7 -30 -5 -17 -5 -17 6 0 6 10 9 23 6 30
-3 9 -5 9 -5 0z"/>
<path d="M2302 5339 l3 -74 40 -7 c76 -13 291 -21 376 -14 l86 8 27 58 c31 67
53 91 65 71 6 -10 9 -9 14 2 5 13 -28 15 -236 16 -133 1 -273 4 -310 7 l-68 7
3 -74z"/>
<path d="M2850 5291 c-6 -11 -6 -22 -1 -25 5 -3 11 5 13 19 6 30 2 32 -12 6z"/>
<path d="M5870 5290 c0 -5 7 -7 15 -4 8 4 15 8 15 10 0 2 -7 4 -15 4 -8 0 -15
-4 -15 -10z"/>
<path d="M5919 5291 c13 -8 13 -16 1 -53 -27 -86 -27 -86 37 -95 75 -10 413
-10 476 0 l48 8 -2 70 -2 69 -251 1 c-138 1 -267 3 -286 5 -24 3 -30 1 -21 -5z"/>
<path d="M2225 5260 c-4 -6 7 -10 24 -10 17 0 31 5 31 10 0 6 -11 10 -24 10
-14 0 -28 -4 -31 -10z"/>
<path d="M5861 5234 c0 -11 3 -14 6 -6 3 7 2 16 -1 19 -3 4 -6 -2 -5 -13z"/>
<path d="M2190 5176 c0 -63 1 -66 30 -81 33 -17 297 -34 422 -27 62 3 67 5 78
33 7 16 16 29 20 29 4 0 13 14 20 31 7 17 19 36 26 43 10 11 -42 14 -269 19
-155 3 -292 9 -304 13 -22 6 -23 4 -23 -60z"/>
<path d="M2806 5204 c-5 -14 -4 -15 9 -4 17 14 19 20 6 20 -5 0 -12 -7 -15
-16z"/>
<path d="M4460 5173 c-189 -20 -422 -122 -485 -213 -24 -34 -26 -44 -17 -65 6
-13 26 -32 44 -42 48 -26 244 -23 350 5 211 57 371 159 371 238 0 37 -35 61
-109 73 -60 11 -85 11 -154 4z"/>
<path d="M2780 5149 c0 -5 5 -7 10 -4 6 3 10 8 10 11 0 2 -4 4 -10 4 -5 0 -10
-5 -10 -11z"/>
<path d="M5882 5113 c6 -17 -25 -92 -36 -86 -6 4 -2 -3 8 -15 27 -31 70 -40
141 -29 33 6 155 10 272 11 l212 1 0 51 -1 52 -187 6 c-102 3 -237 9 -299 12
-62 3 -111 2 -110 -3z"/>
<path d="M2150 5076 c0 -2 14 -6 30 -8 17 -3 30 -1 30 4 0 4 -13 8 -30 8 -16
0 -30 -2 -30 -4z"/>
<path d="M4766 5038 c4 -18 8 -53 9 -77 l2 -45 64 2 c186 6 379 48 379 82 0
34 -184 70 -354 70 l-108 0 8 -32z"/>
<path d="M2130 5013 c0 -21 3 -54 6 -74 7 -42 10 -43 162 -55 l82 -7 0 31 c0
54 48 75 244 107 49 8 93 12 98 9 4 -3 8 0 8 5 0 8 -82 11 -252 12 -139 0
-274 3 -300 5 l-48 5 0 -38z"/>
<path d="M2725 5000 c-191 -17 -325 -49 -325 -79 0 -20 75 -42 190 -58 137
-18 441 -12 560 12 87 17 150 43 150 61 0 45 -350 84 -575 64z"/>
<path d="M4718 5003 c7 -3 16 -2 19 1 4 3 -2 6 -13 5 -11 0 -14 -3 -6 -6z"/>
<path d="M4666 4971 c-3 -5 1 -11 9 -14 9 -4 12 -1 8 9 -6 16 -10 17 -17 5z"/>
<path d="M4700 4971 c0 -6 4 -13 10 -16 6 -3 7 1 4 9 -7 18 -14 21 -14 7z"/>
<path d="M5821 4963 c-1 -13 3 -23 8 -23 17 0 41 12 41 21 0 14 -30 11 -31 -3
0 -7 -4 -4 -9 7 -8 19 -9 19 -9 -2z"/>
<path d="M6065 4969 c-100 -10 -173 -27 -204 -46 -19 -13 -21 -17 -10 -28 44
-41 215 -68 444 -69 l180 -1 3 71 3 71 -83 6 c-104 9 -229 7 -333 -4z"/>
<path d="M5189 4950 c-22 -13 -152 -40 -189 -40 l-29 0 2 -71 2 -71 57 7 c71
8 152 31 166 48 10 13 22 137 13 137 -3 0 -13 -5 -22 -10z"/>
<path d="M4550 4908 c-120 -61 -249 -91 -406 -92 -117 -1 -134 1 -153 18 -25
23 -26 19 -5 -45 9 -28 27 -57 39 -65 72 -47 355 -29 420 27 11 9 31 15 45 13
17 -3 21 -1 12 5 -10 6 5 20 52 49 69 44 86 65 86 106 0 31 3 32 -90 -16z"/>
<path d="M4694 4909 c-9 -16 2 -22 21 -11 15 8 16 10 1 15 -8 3 -18 2 -22 -4z"/>
<path d="M4820 4890 c-23 -5 -27 -8 -12 -9 19 -1 22 -6 22 -46 0 -38 -4 -47
-27 -60 -16 -9 -20 -14 -9 -10 10 3 24 1 30 -4 6 -4 31 -6 56 -2 25 3 40 9 35
13 -7 4 -9 30 -5 67 l6 61 -31 -1 c-16 -1 -46 -5 -65 -9z"/>
<path d="M5796 4883 c-6 -14 -5 -15 5 -6 7 7 10 15 7 18 -3 3 -9 -2 -12 -12z"/>
<path d="M2400 4812 l0 -70 38 -15 c83 -33 338 -49 529 -33 l101 9 4 66 3 66
-240 0 c-234 0 -289 6 -412 41 -22 6 -23 4 -23 -64z"/>
<path d="M4675 4870 c-3 -5 -1 -10 4 -10 6 0 11 5 11 10 0 6 -2 10 -4 10 -3 0
-8 -4 -11 -10z"/>
<path d="M2120 4821 c0 -50 0 -51 31 -51 17 0 74 10 125 22 84 20 94 25 94 45
0 19 -5 23 -33 23 -19 0 -75 3 -125 6 l-92 7 0 -52z"/>
<path d="M5850 4817 c0 -73 8 -94 38 -106 34 -14 186 -41 230 -41 l32 0 0 59
c0 38 4 61 13 64 6 2 -10 7 -38 11 -94 13 -209 37 -242 51 l-33 14 0 -52z"/>
<path d="M4724 4845 c-10 -8 -14 -15 -8 -15 5 0 19 7 30 15 10 8 14 15 8 15
-5 0 -19 -7 -30 -15z"/>
<path d="M5785 4850 c3 -5 10 -10 16 -10 5 0 9 5 9 10 0 6 -7 10 -16 10 -8 0
-12 -4 -9 -10z"/>
<path d="M3148 4843 c7 -3 16 -2 19 1 4 3 -2 6 -13 5 -11 0 -14 -3 -6 -6z"/>
<path d="M5240 4830 c0 -32 -125 -72 -285 -90 l-80 -9 95 4 c142 6 310 46 310
74 0 6 -9 15 -20 21 -14 7 -20 7 -20 0z"/>
<path d="M3281 4823 c-1 -6 -4 -20 -7 -30 -5 -17 -5 -17 6 0 6 10 9 23 6 30
-3 9 -5 9 -5 0z"/>
<path d="M4594 4814 c-18 -14 -18 -15 4 -4 12 6 22 13 22 15 0 8 -5 6 -26 -11z"/>
<path d="M4666 4805 c-11 -8 -16 -15 -10 -15 5 0 18 7 28 15 11 8 16 15 10 15
-5 0 -18 -7 -28 -15z"/>
<path d="M4755 4810 c-8 -13 3 -30 18 -30 8 0 7 3 -2 9 -7 5 -10 14 -7 20 4 6
5 11 2 11 -3 0 -8 -4 -11 -10z"/>
<path d="M5796 4794 c-3 -8 -2 -12 4 -9 6 3 10 2 10 -4 0 -5 -6 -12 -12 -14
-8 -4 -7 -6 4 -6 18 -1 28 17 20 37 -6 17 -19 15 -26 -4z"/>
<path d="M6187 4793 c-4 -3 -6 -25 -5 -47 l1 -41 7 45 8 45 0 -55 c0 -30 1
-61 1 -67 1 -9 18 -13 54 -12 28 1 44 3 35 6 -10 2 -18 9 -18 15 0 6 9 8 20 5
11 -3 18 -1 14 4 -3 5 -11 9 -18 9 -10 0 -11 10 -5 43 4 23 8 45 9 50 0 9 -94
10 -103 0z"/>
<path d="M6463 4755 c0 -27 2 -38 4 -22 2 15 2 37 0 50 -2 12 -4 0 -4 -28z"/>
<path d="M2295 4779 c-72 -16 -73 -19 -25 -44 25 -12 53 -32 64 -43 10 -12 36
-23 60 -27 70 -9 238 -12 291 -6 46 6 41 7 -48 14 -99 7 -204 29 -238 50 -10
6 -21 24 -24 39 -7 30 -15 32 -80 17z"/>
<path d="M4610 4775 l-25 -14 26 -1 c16 0 26 5 26 15 0 8 -1 15 -1 15 -1 -1
-12 -7 -26 -15z"/>
<path d="M3240 4770 c-9 -6 -10 -10 -3 -10 6 0 15 5 18 10 8 12 4 12 -15 0z"/>
<path d="M3150 4766 c0 -2 7 -6 15 -10 8 -3 15 -1 15 4 0 6 -7 10 -15 10 -8 0
-15 -2 -15 -4z"/>
<path d="M5259 4765 c-10 -10 -150 -42 -218 -50 l-61 -7 -1 -36 c0 -21 -2 -52
-4 -69 -4 -38 -11 -37 119 -17 145 23 163 32 171 86 7 49 4 104 -6 93z"/>
<path d="M5765 4749 c-4 -6 -5 -12 -2 -15 2 -3 7 2 10 11 7 17 1 20 -8 4z"/>
<path d="M2120 4515 c0 -172 3 -235 12 -235 23 0 109 63 157 116 90 98 103
199 34 275 -37 41 -121 79 -173 79 l-30 0 0 -235z"/>
<path d="M3210 4740 c0 -5 5 -10 10 -10 6 0 10 5 10 10 0 6 -4 10 -10 10 -5 0
-10 -4 -10 -10z"/>
<path d="M3160 4731 c0 -5 9 -7 20 -4 11 3 20 7 20 9 0 2 -9 4 -20 4 -11 0
-20 -4 -20 -9z"/>
<path d="M5793 4724 c-7 -20 7 -30 72 -49 62 -19 145 -32 250 -39 76 -5 74 -4
-35 13 -147 23 -227 46 -243 71 -14 24 -35 26 -44 4z"/>
<path d="M3880 4704 c-108 -16 -180 -41 -180 -62 0 -16 72 -42 158 -58 253
-45 720 -17 740 44 5 17 -68 48 -146 62 -48 8 -77 8 -120 -1 -82 -17 -228 -15
-282 5 -42 14 -109 19 -170 10z"/>
<path d="M4560 4700 c20 -13 33 -13 25 0 -3 6 -14 10 -23 10 -15 0 -15 -2 -2
-10z"/>
<path d="M4600 4706 c0 -2 9 -6 20 -9 11 -3 18 -1 14 4 -5 9 -34 13 -34 5z"/>
<path d="M4850 4700 l-35 -5 0 -62 c0 -34 3 -64 7 -68 12 -13 78 5 78 20 0 8
6 15 13 15 9 0 8 3 -2 9 -9 6 -12 22 -9 50 4 45 -1 49 -52 41z"/>
<path d="M4600 4672 c0 -4 10 -13 23 -21 22 -14 22 -14 3 8 -20 22 -26 25 -26
13z"/>
<path d="M5792 4639 c3 -41 4 -43 48 -55 67 -18 116 -41 152 -73 26 -22 47
-30 96 -35 l62 -7 0 69 0 70 -67 7 c-116 11 -238 36 -274 56 -19 10 -20 8 -17
-32z"/>
<path d="M6320 4670 c0 -6 7 -10 15 -10 8 0 15 2 15 4 0 2 -7 6 -15 10 -8 3
-15 1 -15 -4z"/>
<path d="M3024 4658 c-3 -5 -2 -8 3 -7 19 3 33 -2 33 -12 0 -5 -4 -8 -8 -5 -4
2 -9 -5 -9 -17 -2 -15 0 -18 6 -8 7 11 9 11 14 0 4 -11 3 28 -2 52 -2 9 -31 7
-37 -3z"/>
<path d="M2940 4656 c0 -10 28 -13 41 -5 10 6 7 9 -13 9 -16 0 -28 -2 -28 -4z"/>
<path d="M2775 4641 c-38 -4 -144 -5 -234 -4 l-163 4 6 -28 c16 -67 39 -111
60 -117 34 -9 211 -7 331 4 130 12 151 18 136 33 -14 14 -14 57 -1 91 9 25 8
26 -28 24 -20 0 -68 -4 -107 -7z"/>
<path d="M4778 4643 c7 -3 16 -2 19 1 4 3 -2 6 -13 5 -11 0 -14 -3 -6 -6z"/>
<path d="M2938 4590 c2 -27 7 -50 10 -50 4 0 5 22 4 50 -2 27 -7 50 -10 50 -4
0 -5 -22 -4 -50z"/>
<path d="M5756 4621 c-4 -7 -5 -15 -2 -18 9 -9 19 4 14 18 -4 11 -6 11 -12 0z"/>
<path d="M3704 4587 c3 -12 6 -32 6 -44 0 -12 8 -24 18 -27 17 -6 55 -38 83
-73 13 -16 38 -23 112 -32 108 -14 363 -17 449 -6 l57 7 7 57 c3 31 10 61 14
66 6 7 -79 10 -248 10 -264 0 -379 13 -470 51 -34 14 -34 13 -28 -9z"/>
<path d="M4630 4593 c0 -17 4 -20 22 -15 16 4 18 7 8 10 -8 3 -18 10 -22 16
-5 6 -8 2 -8 -11z"/>
<path d="M6191 4540 l-2 -70 44 0 44 0 -2 63 c-2 34 -4 65 -4 70 -1 4 -18 7
-40 7 l-38 0 -2 -70z"/>
<path d="M6310 4600 c8 -5 22 -9 30 -9 10 0 8 3 -5 9 -27 12 -43 12 -25 0z"/>
<path d="M6390 4600 c8 -5 20 -10 25 -10 6 0 3 5 -5 10 -8 5 -19 10 -25 10 -5
0 -3 -5 5 -10z"/>
<path d="M6430 4601 c0 -5 9 -7 20 -4 11 3 20 7 20 9 0 2 -9 4 -20 4 -11 0
-20 -4 -20 -9z"/>
<path d="M3600 4583 c-41 -6 -77 -12 -80 -13 -3 -1 31 -10 75 -20 44 -10 81
-17 83 -15 2 2 2 16 0 32 l-3 28 -75 -12z"/>
<path d="M5350 4590 c-180 -31 -272 -85 -241 -144 26 -48 136 -90 291 -111
207 -28 405 -10 520 47 35 18 69 41 75 51 27 45 -68 113 -200 143 -83 18 -365
27 -445 14z"/>
<path d="M3046 4575 c-3 -8 -1 -15 4 -15 6 0 10 7 10 15 0 8 -2 15 -4 15 -2 0
-6 -7 -10 -15z"/>
<path d="M4570 4575 c-7 -8 -9 -15 -6 -15 4 0 14 7 22 15 9 8 11 15 6 15 -5 0
-15 -7 -22 -15z"/>
<path d="M6462 4570 c0 -14 2 -19 5 -12 2 6 2 18 0 25 -3 6 -5 1 -5 -13z"/>
<path d="M3096 4573 c-12 -12 -5 -23 14 -23 11 0 20 4 20 9 0 11 -26 22 -34
14z"/>
<path d="M4688 4573 c6 -2 18 -2 25 0 6 3 1 5 -13 5 -14 0 -19 -2 -12 -5z"/>
<path d="M4591 4554 c0 -11 3 -14 6 -6 3 7 2 16 -1 19 -3 4 -6 -2 -5 -13z"/>
<path d="M3116 4530 c-102 -22 -190 -61 -213 -96 -15 -24 -15 -27 4 -52 51
-69 195 -104 418 -103 212 1 378 39 443 100 64 61 -23 127 -212 160 -97 18
-338 12 -440 -9z"/>
<path d="M5017 4542 c-21 -2 -40 -9 -42 -15 -9 -24 -10 -127 -2 -130 5 -1 30
0 56 3 l46 5 3 45 c2 32 11 53 30 73 l27 28 -40 -3 c-22 -2 -57 -4 -78 -6z"/>
<path d="M4635 4520 c-3 -6 1 -7 9 -4 18 7 21 14 7 14 -6 0 -13 -4 -16 -10z"/>
<path d="M4808 4503 c-2 -16 -1 -47 1 -70 3 -43 3 -43 42 -43 30 0 39 4 40 18
0 9 2 41 4 70 l3 52 -43 0 c-40 0 -44 -2 -47 -27z"/>
<path d="M4938 4523 c7 -3 16 -2 19 1 4 3 -2 6 -13 5 -11 0 -14 -3 -6 -6z"/>
<path d="M4708 4513 c17 -2 47 -2 65 0 17 2 3 4 -33 4 -36 0 -50 -2 -32 -4z"/>
<path d="M2372 4476 c-18 -48 -109 -145 -180 -192 -69 -45 -72 -49 -72 -96 0
-50 15 -56 49 -19 17 18 35 29 44 26 16 -7 106 61 134 102 52 73 70 139 50
187 l-12 28 -13 -36z"/>
<path d="M2910 4494 c-8 -2 -49 -8 -90 -14 l-75 -9 88 3 c49 2 94 9 100 15 11
11 5 12 -23 5z"/>
<path d="M4635 4489 c-11 -16 -1 -19 13 -3 7 8 8 14 3 14 -5 0 -13 -5 -16 -11z"/>
<path d="M6298 4473 c7 -3 16 -2 19 1 4 3 -2 6 -13 5 -11 0 -14 -3 -6 -6z"/>
<path d="M4565 4460 c-13 -6 -15 -9 -5 -9 8 0 22 4 30 9 18 12 2 12 -25 0z"/>
<path d="M2470 4432 c62 -20 121 -61 145 -101 l20 -32 114 5 c63 3 115 7 116
8 1 2 5 33 7 69 l5 66 -226 0 c-214 0 -224 -1 -181 -15z"/>
<path d="M4481 4434 c0 -11 3 -14 6 -6 3 7 2 16 -1 19 -3 4 -6 -2 -5 -13z"/>
<path d="M4515 4440 c-3 -5 -2 -10 4 -10 5 0 13 5 16 10 3 6 2 10 -4 10 -5 0
-13 -4 -16 -10z"/>
<path d="M6020 4400 c0 -26 8 -51 22 -70 18 -25 29 -30 65 -30 l44 0 -3 68 -3
67 -62 3 -63 3 0 -41z"/>
<path d="M6190 4363 l5 -68 48 -3 c27 -2 47 1 44 5 -3 5 -6 33 -8 63 -2 46 0
55 13 52 9 -1 19 2 23 8 4 6 -18 10 -62 10 l-68 0 5 -67z"/>
<path d="M2424 4403 c-15 -49 -47 -106 -80 -143 -44 -49 -145 -121 -188 -135
l-31 -10 -3 -117 -3 -118 29 0 c52 0 182 39 250 75 82 43 171 126 200 186 24
50 29 126 11 162 -22 43 -63 77 -116 97 -65 24 -62 24 -69 3z"/>
<path d="M4575 4410 c-8 -13 15 -13 35 0 12 8 11 10 -7 10 -12 0 -25 -4 -28
-10z"/>
<path d="M6448 4413 c7 -3 16 -2 19 1 4 3 -2 6 -13 5 -11 0 -14 -3 -6 -6z"/>
<path d="M3810 4401 c0 -10 53 -18 165 -25 68 -5 68 -5 -20 9 -49 7 -102 16
-117 19 -16 3 -28 2 -28 -3z"/>
<path d="M5100 4354 c0 -49 4 -59 30 -84 49 -46 178 -81 350 -96 81 -6 309 11
324 26 4 4 9 34 10 65 1 55 1 56 -24 51 -14 -3 -74 -9 -135 -12 -188 -11 -426
27 -507 81 -21 14 -40 25 -43 25 -3 0 -5 -25 -5 -56z"/>
<path d="M4533 4360 c0 -25 2 -35 4 -22 2 12 2 32 0 45 -2 12 -4 2 -4 -23z"/>
<path d="M4998 4375 c-3 -3 -101 -6 -217 -6 -170 0 -211 -2 -211 -13 0 -22 34
-26 210 -26 229 0 300 8 300 31 0 15 -8 19 -38 19 -21 0 -41 -2 -44 -5z"/>
<path d="M3810 4337 c0 -29 6 -39 29 -53 16 -10 35 -28 42 -41 7 -13 22 -25
33 -28 81 -16 411 -9 488 10 21 5 23 11 21 65 -1 50 1 60 15 61 10 1 6 4 -8 8
-14 4 -52 3 -85 -2 -62 -9 -459 -2 -507 9 -27 6 -28 4 -28 -29z"/>
<path d="M5948 4363 c-10 -2 -18 -9 -18 -14 0 -14 16 -11 30 6 7 8 11 14 9 14
-2 -1 -12 -3 -21 -6z"/>
<path d="M2890 4291 c0 -58 1 -61 38 -86 99 -68 294 -93 537 -70 l60 6 -2 50
c0 30 3 49 10 49 6 0 3 6 -7 13 -14 10 -34 11 -84 5 -82 -11 -245 -3 -348 17
-62 12 -114 31 -196 73 -5 2 -8 -24 -8 -57z"/>
<path d="M5890 4335 c-17 -10 -20 -14 -9 -15 9 0 22 7 29 15 15 18 12 18 -20
0z"/>
<path d="M5915 4320 c-3 -6 1 -7 9 -4 18 7 21 14 7 14 -6 0 -13 -4 -16 -10z"/>
<path d="M4990 4311 c-34 -6 -35 -8 -38 -56 -2 -28 -10 -55 -18 -61 -8 -6 -14
-14 -14 -17 0 -9 130 1 166 13 40 14 46 46 14 75 -11 10 -20 26 -20 37 0 19
-20 21 -90 9z"/>
<path d="M6020 4306 c0 -27 -59 -84 -106 -102 -24 -9 -70 -23 -102 -30 l-57
-13 50 5 c71 7 171 42 205 71 30 25 40 66 20 78 -5 3 -10 -1 -10 -9z"/>
<path d="M4817 4298 c-6 -4 -10 -30 -8 -62 l2 -55 -63 -4 c-49 -2 -42 -4 33
-5 l97 -2 4 42 c7 72 0 96 -29 94 -14 0 -30 -4 -36 -8z"/>
<path d="M5940 4301 c14 -10 7 -16 -13 -12 -5 1 -6 -3 -2 -8 7 -13 37 -2 32
12 -2 6 -10 12 -18 15 -11 3 -11 2 1 -7z"/>
<path d="M3609 4283 c-13 -3 -15 -11 -9 -42 4 -22 3 -46 -2 -55 -14 -24 15
-31 49 -11 15 9 20 14 11 11 -10 -3 -18 -1 -18 4 0 5 8 11 18 13 16 4 16 5 0
6 -18 1 -22 9 -19 48 2 24 -6 31 -30 26z"/>
<path d="M4522 4274 c-7 -8 -8 -14 -3 -14 10 0 25 19 20 25 -2 1 -10 -3 -17
-11z"/>
<path d="M2739 4272 c-80 -2 -89 -5 -89 -22 0 -10 4 -21 9 -24 5 -3 14 -27 20
-52 l12 -47 117 6 c159 7 163 10 107 59 -29 26 -45 48 -45 63 0 18 -5 23 -21
22 -11 -1 -61 -3 -110 -5z"/>
<path d="M3660 4270 c0 -5 5 -10 11 -10 5 0 7 5 4 10 -3 6 -8 10 -11 10 -2 0
-4 -4 -4 -10z"/>
<path d="M6060 4259 c0 -19 72 -29 210 -29 138 0 210 10 210 29 0 14 -24 16
-210 16 -186 0 -210 -2 -210 -16z"/>
<path d="M3548 4263 c7 -3 16 -2 19 1 4 3 -2 6 -13 5 -11 0 -14 -3 -6 -6z"/>
<path d="M3810 4260 c0 -24 -65 -81 -116 -100 -136 -51 -451 -70 -601 -37 -78
17 -73 5 10 -22 172 -56 443 -53 632 6 125 40 174 104 112 148 -25 17 -37 19
-37 5z"/>
<path d="M4440 4250 c0 -5 7 -7 15 -4 8 4 15 8 15 10 0 2 -7 4 -15 4 -8 0 -15
-4 -15 -10z"/>
<path d="M5928 4253 c7 -3 16 -2 19 1 4 3 -2 6 -13 5 -11 0 -14 -3 -6 -6z"/>
<path d="M3730 4220 c-8 -5 -10 -10 -5 -10 6 0 17 5 25 10 8 5 11 10 5 10 -5
0 -17 -5 -25 -10z"/>
<path d="M5140 4174 c0 -37 5 -51 28 -74 36 -36 156 -74 277 -89 149 -18 189
-15 262 21 50 24 83 33 151 38 48 4 81 8 75 9 -7 0 -16 19 -19 42 -6 38 -9 40
-33 35 -89 -21 -181 -28 -301 -23 -156 7 -279 28 -357 63 -78 34 -83 32 -83
-22z"/>
<path d="M6025 4210 c-3 -5 -1 -10 4 -10 6 0 11 5 11 10 0 6 -2 10 -4 10 -3 0
-8 -4 -11 -10z"/>
<path d="M6070 4173 c0 -24 -5 -53 -11 -65 -13 -25 -14 -24 44 -31 l47 -7 0
65 c0 59 2 65 21 65 15 0 20 -6 19 -22 -1 -13 -2 -42 -1 -65 l1 -43 50 0 50 0
0 58 c0 31 -4 62 -8 68 -4 7 -50 13 -109 16 l-103 5 0 -44z"/>
<path d="M4535 4200 c3 -5 8 -10 11 -10 2 0 4 5 4 10 0 6 -5 10 -11 10 -5 0
-7 -4 -4 -10z"/>
<path d="M4468 4193 c6 -2 18 -2 25 0 6 3 1 5 -13 5 -14 0 -19 -2 -12 -5z"/>
<path d="M5980 4190 c-8 -5 -10 -10 -5 -10 6 0 17 5 25 10 8 5 11 10 5 10 -5
0 -17 -5 -25 -10z"/>
<path d="M3895 4180 c-3 -5 -5 -38 -4 -74 l2 -65 76 -7 c75 -7 358 1 416 12
29 5 30 7 29 62 0 31 4 63 10 70 8 11 -2 12 -55 5 -75 -9 -403 -9 -441 0 -15
4 -29 3 -33 -3z"/>
<path d="M4580 4186 c0 -8 51 -13 56 -5 3 5 -9 9 -25 9 -17 0 -31 -2 -31 -4z"/>
<path d="M6450 4180 c0 -5 5 -10 11 -10 5 0 7 5 4 10 -3 6 -8 10 -11 10 -2 0
-4 -4 -4 -10z"/>
<path d="M2625 4153 c-9 -39 -67 -114 -120 -157 -79 -65 -263 -136 -351 -136
-19 0 -24 -5 -24 -23 l0 -24 133 2 c123 3 137 5 186 30 114 60 211 182 211
267 0 66 -22 92 -35 41z"/>
<path d="M4475 4169 c-4 -6 -5 -12 -2 -15 2 -3 7 2 10 11 7 17 1 20 -8 4z"/>
<path d="M5076 4160 c-122 -78 6 -168 284 -200 113 -13 262 -10 267 6 2 7 -31
13 -98 18 -128 8 -238 30 -312 63 -66 30 -97 63 -97 104 0 33 -4 34 -44 9z"/>
<path d="M6360 4173 c19 -3 39 -10 43 -16 6 -8 7 -7 4 3 -2 10 -17 15 -43 16
-37 1 -38 1 -4 -3z"/>
<path d="M4507 4157 c-3 -8 -2 -19 3 -26 5 -9 9 -4 12 13 5 27 -6 36 -15 13z"/>
<path d="M5923 4153 c-3 -8 -3 -17 1 -20 3 -4 6 1 6 11 0 12 5 16 18 12 9 -3
23 -2 30 3 8 5 1 8 -19 8 -17 0 -33 -6 -36 -14z"/>
<path d="M6450 4149 c0 -5 5 -7 10 -4 6 3 10 8 10 11 0 2 -4 4 -10 4 -5 0 -10
-5 -10 -11z"/>
<path d="M4535 4141 c-3 -5 -1 -12 5 -16 5 -3 10 1 10 9 0 18 -6 21 -15 7z"/>
<path d="M4580 4128 c0 -10 3 -18 8 -19 4 0 26 -2 49 -5 64 -9 366 15 380 29
10 10 -35 12 -212 12 -208 0 -225 -1 -225 -17z"/>
<path d="M2980 4082 c0 -62 13 -83 68 -111 77 -40 279 -67 413 -56 l77 7 -4
31 c-1 18 -4 34 -5 37 -1 3 -2 14 -3 25 -1 19 -10 20 -156 26 -188 8 -287 30
-362 82 l-28 18 0 -59z"/>
<path d="M3861 4124 c0 -11 3 -14 6 -6 3 7 2 16 -1 19 -3 4 -6 -2 -5 -13z"/>
<path d="M6452 4110 c0 -14 2 -19 5 -12 2 6 2 18 0 25 -3 6 -5 1 -5 -13z"/>
<path d="M2879 4116 c-2 -3 -42 -6 -89 -7 -97 -2 -110 -5 -110 -27 0 -13 16
-14 123 -9 131 6 157 11 157 33 0 10 -12 14 -38 14 -21 0 -41 -2 -43 -4z"/>
<path d="M4492 4090 c0 -14 2 -19 5 -12 2 6 2 18 0 25 -3 6 -5 1 -5 -13z"/>
<path d="M3856 4078 c-3 -13 -2 -26 3 -31 4 -4 8 6 9 23 1 36 -3 39 -12 8z"/>
<path d="M4518 4093 c7 -3 16 -2 19 1 4 3 -2 6 -13 5 -11 0 -14 -3 -6 -6z"/>
<path d="M4940 4080 c-6 -11 -10 -44 -8 -73 3 -51 3 -52 33 -48 17 1 33 5 38
8 4 2 7 33 7 69 l0 64 -30 0 c-19 0 -33 -7 -40 -20z"/>
<path d="M5971 4084 c0 -11 3 -14 6 -6 3 7 2 16 -1 19 -3 4 -6 -2 -5 -13z"/>
<path d="M3768 4083 c7 -3 16 -2 19 1 4 3 -2 6 -13 5 -11 0 -14 -3 -6 -6z"/>
<path d="M4824 4083 c-19 -4 -22 -13 -27 -66 -2 -34 -2 -65 2 -69 3 -3 27 -4
54 -1 39 5 44 8 31 17 -11 9 -14 25 -12 61 3 43 6 50 28 56 20 6 17 7 -15 7
-22 -1 -50 -3 -61 -5z"/>
<path d="M4638 4073 c7 -3 16 -2 19 1 4 3 -2 6 -13 5 -11 0 -14 -3 -6 -6z"/>
<path d="M4728 4073 c6 -2 18 -2 25 0 6 3 1 5 -13 5 -14 0 -19 -2 -12 -5z"/>
<path d="M2820 4053 c-125 -9 -147 -14 -157 -36 -6 -12 -27 -44 -48 -71 l-37
-49 149 7 c81 4 156 10 166 12 13 4 17 16 17 49 0 24 4 55 10 69 11 29 17 28
-100 19z"/>
<path d="M2946 4047 c-18 -38 2 -67 67 -97 34 -16 80 -32 102 -35 31 -5 24 -1
-28 18 -75 26 -124 66 -130 106 -3 22 -4 23 -11 8z"/>
<path d="M3615 4048 c-3 -7 -6 -24 -7 -38 -2 -14 -7 -28 -13 -32 -6 -5 -5 -8
3 -8 6 0 12 -5 12 -11 0 -5 -4 -7 -10 -4 -6 4 -7 -1 -3 -11 4 -12 14 -15 41
-10 20 3 39 11 43 17 4 6 12 8 19 4 9 -6 11 -4 6 4 -5 7 -14 10 -22 7 -10 -4
-13 6 -11 44 2 49 1 50 -26 50 -15 0 -30 -6 -32 -12z"/>
<path d="M6070 4040 c45 -17 88 -22 233 -27 176 -6 177 -6 177 16 0 21 -3 21
-184 21 -101 0 -205 2 -232 5 l-49 5 55 -20z"/>
<path d="M4445 4032 c-45 -11 -125 -15 -313 -17 -161 -1 -257 -6 -263 -12 -19
-19 7 -24 178 -30 241 -8 457 19 493 62 10 13 9 15 -11 14 -13 -1 -51 -8 -84
-17z"/>
<path d="M4582 4025 c0 -16 2 -22 5 -12 2 9 2 23 0 30 -3 6 -5 -1 -5 -18z"/>
<path d="M5775 4037 c-70 -24 -104 -46 -132 -88 -77 -117 14 -278 212 -374
113 -55 172 -68 294 -63 81 3 104 8 146 31 203 111 86 366 -217 474 -88 31
-239 41 -303 20z"/>
<path d="M5030 3996 l0 -43 88 -5 c111 -7 161 -28 216 -89 44 -48 45 -49 115
-54 l71 -5 0 39 c0 22 4 51 10 65 l10 26 -70 0 c-144 0 -308 35 -397 85 l-43
24 0 -43z"/>
<path d="M3798 3999 c-10 -10 -14 -19 -10 -19 5 0 17 9 27 20 10 11 14 20 9
19 -5 0 -17 -9 -26 -20z"/>
<path d="M4902 4000 c0 -14 2 -19 5 -12 2 6 2 18 0 25 -3 6 -5 1 -5 -13z"/>
<path d="M6246 3962 c29 -22 40 -25 42 -15 7 29 -7 43 -44 43 l-37 0 39 -28z"/>
<path d="M3725 3970 c3 -5 8 -10 11 -10 2 0 4 5 4 10 0 6 -5 10 -11 10 -5 0
-7 -4 -4 -10z"/>
<path d="M4580 3966 c0 -10 8 -16 22 -16 12 0 19 1 17 3 -2 1 -12 9 -21 16
-15 12 -18 11 -18 -3z"/>
<path d="M6451 3964 c0 -11 3 -14 6 -6 3 7 2 16 -1 19 -3 4 -6 -2 -5 -13z"/>
<path d="M2936 3908 c2 -55 5 -65 30 -85 80 -63 347 -102 524 -75 l44 7 1 57
1 56 -180 4 c-199 4 -311 26 -382 74 -19 13 -36 24 -38 24 -1 0 -2 -28 0 -62z"/>
<path d="M3810 3940 c0 -11 2 -20 4 -20 2 0 6 9 9 20 3 11 1 20 -4 20 -5 0 -9
-9 -9 -20z"/>
<path d="M3859 3950 c0 -3 -1 -25 -3 -50 -2 -25 -5 -52 -7 -60 -6 -21 58 -28
263 -29 157 -1 370 18 311 27 -25 4 -31 27 -10 35 10 4 10 6 0 6 -8 1 -13 16
-13 39 l0 37 -270 0 c-149 0 -270 -2 -271 -5z"/>
<path d="M3756 3917 c3 -10 9 -15 12 -12 3 3 0 11 -7 18 -10 9 -11 8 -5 -6z"/>
<path d="M4932 3910 c-166 -44 -308 -156 -350 -277 -10 -31 -10 -32 36 -59 64
-37 142 -101 177 -146 27 -34 34 -37 80 -38 150 -1 354 103 433 220 45 66 58
119 42 174 -35 124 -215 179 -418 126z"/>
<path d="M5560 3920 c0 -5 5 -10 10 -10 6 0 10 5 10 10 0 6 -4 10 -10 10 -5 0
-10 -4 -10 -10z"/>
<path d="M4490 3912 c0 -4 9 -14 19 -22 19 -13 19 -15 3 -27 -15 -12 -14 -13
6 -3 l24 12 -23 24 c-24 26 -29 28 -29 16z"/>
<path d="M3168 3903 c7 -3 16 -2 19 1 4 3 -2 6 -13 5 -11 0 -14 -3 -6 -6z"/>
<path d="M3630 3890 c-30 -10 -47 -18 -38 -19 21 -1 20 -63 -2 -73 -12 -5 -12
-7 3 -7 9 -1 17 -5 17 -11 0 -13 22 -13 57 1 16 7 23 13 15 16 -8 3 -10 9 -4
16 11 14 23 97 14 96 -4 0 -32 -8 -62 -19z"/>
<path d="M6382 3903 c2 -6 -6 -19 -17 -27 -19 -15 -19 -16 -1 -9 11 4 17 2 13
-3 -3 -6 9 -10 26 -11 18 -1 24 1 15 4 -10 2 -19 9 -19 14 -1 5 -2 13 -3 18 0
5 -5 13 -9 18 -5 4 -7 3 -5 -4z"/>
<path d="M2668 3881 c-117 -5 -140 -9 -155 -25 -18 -18 -14 -18 127 -11 175 8
232 16 238 33 2 8 -8 11 -35 10 -21 -1 -100 -4 -175 -7z"/>
<path d="M2890 3860 c-23 -43 29 -86 150 -120 58 -17 110 -22 230 -25 l155 -4
-126 9 c-141 10 -240 30 -298 59 -43 22 -94 78 -85 92 3 5 1 9 -5 9 -6 0 -15
-9 -21 -20z"/>
<path d="M6450 3860 c0 -5 5 -10 10 -10 6 0 10 5 10 10 0 6 -4 10 -10 10 -5 0
-10 -4 -10 -10z"/>
<path d="M3785 3850 c-3 -5 -1 -10 4 -10 6 0 11 5 11 10 0 6 -2 10 -4 10 -3 0
-8 -4 -11 -10z"/>
<path d="M4453 3853 c9 -2 23 -2 30 0 6 3 -1 5 -18 5 -16 0 -22 -2 -12 -5z"/>
<path d="M4551 3846 c-43 -51 -516 -78 -713 -41 -58 11 -46 -12 12 -24 116
-25 249 -33 439 -28 188 5 277 18 329 46 31 17 28 30 -13 47 -42 17 -40 17
-54 0z"/>
<path d="M2765 3830 c-33 -4 -117 -8 -187 -9 -70 -1 -129 -5 -132 -9 -2 -4 28
-16 67 -26 73 -19 150 -62 161 -91 4 -12 15 -15 38 -11 18 3 59 8 91 11 l57 6
0 70 c0 60 -2 69 -17 68 -10 -1 -45 -5 -78 -9z"/>
<path d="M5555 3829 c-4 -6 -5 -12 -2 -15 2 -3 7 2 10 11 7 17 1 20 -8 4z"/>
<path d="M3700 3810 c0 -5 5 -10 10 -10 6 0 10 5 10 10 0 6 -4 10 -10 10 -5 0
-10 -4 -10 -10z"/>
<path d="M5590 3790 c0 -9 6 -22 13 -29 10 -11 9 -13 -3 -9 -24 9 -24 -45 0
-99 11 -25 47 -71 81 -104 l61 -59 67 -1 c36 -1 104 -2 151 -3 71 -2 78 -1 39
6 -26 4 -91 30 -146 57 -111 55 -202 134 -240 211 -13 25 -23 38 -23 30z"/>
<path d="M2133 3783 c-10 -3 -13 -41 -13 -139 l0 -134 58 -1 c237 -3 370 25
448 93 108 95 -66 189 -350 187 -72 0 -137 -3 -143 -6z"/>
<path d="M2880 3730 c0 -56 2 -61 35 -85 19 -15 69 -38 112 -52 71 -24 94 -26
248 -27 94 -1 191 3 218 7 l47 8 0 54 c0 48 2 54 23 58 12 2 -63 2 -168 -1
-233 -6 -344 10 -447 62 l-68 34 0 -58z"/>
<path d="M5380 3782 c0 -13 19 -19 85 -27 28 -4 57 -9 66 -11 10 -3 18 3 22
16 5 19 1 20 -68 20 -40 0 -80 3 -89 6 -9 3 -16 1 -16 -4z"/>
<path d="M4625 3769 c-4 -6 -5 -12 -2 -15 2 -3 7 2 10 11 7 17 1 20 -8 4z"/>
<path d="M3762 3750 c7 -10 14 -18 15 -16 6 6 -9 36 -18 36 -5 0 -4 -9 3 -20z"/>
<path d="M3809 3769 c-6 -32 -4 -40 19 -55 38 -23 62 -55 62 -81 0 -13 1 -23
3 -23 1 0 29 -4 61 -10 53 -8 68 -7 128 15 67 24 142 36 248 39 l55 1 0 37 1
37 -161 0 c-146 1 -354 19 -397 36 -10 4 -18 6 -19 4z"/>
<path d="M3700 3739 c0 -5 5 -7 10 -4 6 3 10 8 10 11 0 2 -4 4 -10 4 -5 0 -10
-5 -10 -11z"/>
<path d="M3638 3728 c-24 -6 -36 -15 -36 -26 0 -9 -4 -38 -10 -64 l-9 -48 26
7 c42 10 88 32 69 33 -21 0 -26 50 -5 50 8 0 7 4 -3 10 -12 8 -13 13 -2 30 7
11 11 20 10 19 -2 -1 -20 -5 -40 -11z"/>
<path d="M5405 3699 c8 -23 15 -52 15 -65 0 -17 6 -24 20 -24 11 0 20 5 20 10
0 6 -4 10 -8 10 -15 0 -14 90 0 91 17 1 -23 17 -44 18 -16 1 -16 -2 -3 -40z"/>
<path d="M4448 3723 c12 -2 32 -2 45 0 12 2 2 4 -23 4 -25 0 -35 -2 -22 -4z"/>
<path d="M3765 3711 c-3 -5 -2 -12 3 -15 5 -3 9 1 9 9 0 17 -3 19 -12 6z"/>
<path d="M4569 3718 c-3 -11 -5 -48 -3 -48 11 0 23 40 14 45 -5 3 -10 5 -11 3z"/>
<path d="M5490 3716 c0 -9 30 -14 35 -6 4 6 -3 10 -14 10 -12 0 -21 -2 -21 -4z"/>
<path d="M5537 3701 c-4 -17 -3 -21 5 -13 5 5 8 16 6 23 -3 8 -7 3 -11 -10z"/>
<path d="M4470 3700 c-9 -6 -10 -10 -3 -10 6 0 15 5 18 10 8 12 4 12 -15 0z"/>
<path d="M3785 3667 c-27 -42 -109 -82 -215 -104 -114 -24 -415 -25 -508 -1
-92 23 -62 -5 42 -38 70 -23 103 -27 246 -31 180 -6 300 9 404 48 67 24 116
63 116 90 0 18 -44 70 -59 69 -3 -1 -15 -15 -26 -33z"/>
<path d="M5371 3664 c0 -11 3 -14 6 -6 3 7 2 16 -1 19 -3 4 -6 -2 -5 -13z"/>
<path d="M5550 3666 c0 -9 -4 -14 -10 -11 -5 3 -10 1 -10 -4 0 -6 5 -11 10
-11 13 0 25 28 16 37 -3 4 -6 -1 -6 -11z"/>
<path d="M3730 3659 c0 -6 -10 -8 -22 -5 -13 3 -17 3 -10 0 6 -3 9 -10 6 -16
-4 -6 2 -5 15 1 19 10 29 31 16 31 -3 0 -5 -5 -5 -11z"/>
<path d="M4476 3659 c3 -5 -5 -10 -18 -10 -14 -1 -17 -3 -7 -6 8 -2 26 0 39 5
24 9 24 9 2 14 -12 4 -20 2 -16 -3z"/>
<path d="M4542 3656 c7 -8 15 -12 17 -11 5 6 -10 25 -20 25 -5 0 -4 -6 3 -14z"/>
<path d="M4408 3653 c7 -3 16 -2 19 1 4 3 -2 6 -13 5 -11 0 -14 -3 -6 -6z"/>
<path d="M5349 3638 c0 -2 -2 -23 -4 -48 -2 -28 -1 -36 3 -21 4 13 16 28 27
33 18 8 18 8 -2 4 -13 -2 -23 0 -23 5 0 5 10 14 23 19 l22 9 -22 0 c-13 1 -23
0 -24 -1z"/>
<path d="M4530 3620 c0 -5 4 -10 9 -10 6 0 13 5 16 10 3 6 -1 10 -9 10 -9 0
-16 -4 -16 -10z"/>
<path d="M5470 3620 c0 -5 5 -10 11 -10 5 0 7 5 4 10 -3 6 -8 10 -11 10 -2 0
-4 -4 -4 -10z"/>
<path d="M5570 3610 c0 -11 7 -20 15 -20 13 0 14 4 5 20 -6 11 -13 20 -15 20
-3 0 -5 -9 -5 -20z"/>
<path d="M5510 3609 c0 -5 5 -7 10 -4 6 3 10 8 10 11 0 2 -4 4 -10 4 -5 0 -10
-5 -10 -11z"/>
<path d="M2628 3575 c-63 -54 -269 -100 -423 -93 l-80 3 -1 -59 -1 -59 151 6
c156 6 210 16 307 59 63 29 82 60 77 126 l-3 40 -27 -23z"/>
<path d="M5307 3563 c-4 -3 -7 -11 -7 -17 0 -6 5 -5 12 2 6 6 9 14 7 17 -3 3
-9 2 -12 -2z"/>
<path d="M2970 3508 c0 -46 4 -58 28 -80 61 -58 192 -88 382 -88 71 0 163 5
204 11 l75 11 -2 60 -2 59 -85 -8 c-254 -24 -426 0 -592 85 -5 2 -8 -21 -8
-50z"/>
<path d="M3785 3524 c-46 -22 -47 -23 -18 -21 17 1 29 4 27 7 -3 2 10 12 28
22 49 26 21 20 -37 -8z"/>
<path d="M5351 3523 c-9 -16 -12 -16 -22 -3 -9 12 -10 12 -7 1 7 -23 26 -24
38 -2 13 25 5 28 -9 4z"/>
<path d="M2665 3486 c-24 -49 -84 -89 -170 -111 -90 -23 -242 -38 -315 -30
-50 5 -62 4 -53 -5 7 -7 59 -14 135 -17 243 -10 458 61 458 152 0 12 -8 29
-17 37 -17 15 -20 13 -38 -26z"/>
<path d="M3825 3510 c3 -5 8 -10 11 -10 2 0 4 5 4 10 0 6 -5 10 -11 10 -5 0
-7 -4 -4 -10z"/>
<path d="M3675 3480 c-7 -11 22 -26 32 -16 4 3 -2 6 -13 7 -18 0 -18 1 1 9 16
7 17 9 3 9 -9 1 -20 -4 -23 -9z"/>
<path d="M3810 3486 c0 -2 7 -7 16 -10 8 -3 12 -2 9 4 -6 10 -25 14 -25 6z"/>
<path d="M5130 3438 c-69 -35 -120 -53 -186 -65 l-92 -17 21 -43 c24 -49 28
-50 130 -28 80 17 176 58 234 100 42 30 51 53 20 47 -10 -2 -19 7 -24 25 l-8
28 -95 -47z"/>
<path d="M6228 3483 c6 -2 18 -2 25 0 6 3 1 5 -13 5 -14 0 -19 -2 -12 -5z"/>
<path d="M6270 3481 c0 -5 7 -12 16 -15 14 -5 15 -4 4 9 -14 17 -20 19 -20 6z"/>
<path d="M5309 3463 c-13 -16 -12 -17 4 -4 9 7 17 15 17 17 0 8 -8 3 -21 -13z"/>
<path d="M6090 3469 c0 -11 47 -12 53 -1 3 4 -8 7 -24 8 -16 1 -29 -3 -29 -7z"/>
<path d="M6178 3473 c6 -2 18 -2 25 0 6 3 1 5 -13 5 -14 0 -19 -2 -12 -5z"/>
<path d="M5240 3459 c0 -5 5 -7 10 -4 6 3 10 8 10 11 0 2 -4 4 -10 4 -5 0 -10
-5 -10 -11z"/>
<path d="M5700 3464 c-80 -7 -194 -35 -245 -61 -82 -40 -107 -91 -65 -133 19
-19 33 -20 371 -20 l351 0 29 29 c35 35 36 49 8 85 -27 35 -84 63 -161 80 -69
16 -217 26 -288 20z"/>
<path d="M3780 3420 c-6 -11 -8 -20 -6 -20 3 0 10 9 16 20 6 11 8 20 6 20 -3
0 -10 -9 -16 -20z"/>
<path d="M3717 3408 c18 -18 25 -20 35 -10 11 11 10 12 -4 7 -10 -4 -18 -3
-18 3 0 5 -8 13 -17 16 -14 6 -13 2 4 -16z"/>
<path d="M6130 3419 c0 -5 5 -7 10 -4 6 3 10 8 10 11 0 2 -4 4 -10 4 -5 0 -10
-5 -10 -11z"/>
<path d="M3680 3412 c0 -15 18 -34 29 -31 7 3 3 11 -9 21 -11 10 -20 14 -20
10z"/>
<path d="M6188 3413 c7 -3 16 -2 19 1 4 3 -2 6 -13 5 -11 0 -14 -3 -6 -6z"/>
<path d="M2686 3385 c-72 -57 -238 -90 -427 -83 -130 5 -137 4 -134 -13 2 -11
7 -24 10 -29 4 -6 105 -10 269 -10 250 0 263 1 284 20 26 24 35 54 30 103 l-3
35 -29 -23z"/>
<path d="M6150 3260 c-13 -8 -12 -10 3 -10 9 0 17 5 17 10 0 12 -1 12 -20 0z"/>
<path d="M1550 9655 c0 -8 13 -21 29 -29 36 -19 65 -77 56 -116 -6 -28 -56
-80 -76 -80 -5 0 -9 -9 -9 -20 0 -55 102 13 120 81 16 57 -2 111 -48 148 -39
33 -72 40 -72 16z"/>
<path d="M1550 9529 c0 -67 1 -71 18 -58 37 30 43 69 16 107 -26 37 -34 25
-34 -49z"/>
<path d="M6985 9650 c-59 -39 -80 -115 -51 -185 24 -56 116 -101 116 -56 0 12
-9 21 -25 25 -14 4 -34 21 -45 39 -37 60 -20 121 41 152 32 17 39 45 12 45
-10 0 -31 -9 -48 -20z"/>
<path d="M7011 9574 c-12 -15 -21 -34 -21 -44 0 -23 39 -72 51 -65 12 8 12
135 0 135 -5 0 -19 -12 -30 -26z"/>
<path d="M7010 7821 c0 -1455 0 -1461 20 -1461 20 0 20 5 18 1457 -3 1379 -4
1458 -20 1461 -17 3 -18 -71 -18 -1457z"/>
<path d="M1550 6215 c0 -8 4 -15 9 -15 22 0 71 -53 77 -84 7 -42 -17 -92 -57
-114 -16 -10 -29 -25 -29 -34 0 -22 3 -22 45 -2 59 28 92 101 75 165 -17 61
-120 134 -120 84z"/>
<path d="M1550 6095 c0 -54 3 -63 15 -59 37 14 47 80 17 107 -10 10 -22 17
-25 17 -4 0 -7 -29 -7 -65z"/>
<path d="M6999 6222 c-117 -59 -99 -229 29 -267 36 -11 29 30 -8 45 -64 26
-80 116 -31 169 16 17 36 31 45 31 17 0 22 25 8 34 -5 3 -24 -3 -43 -12z"/>
<path d="M7016 6145 c-26 -27 -29 -56 -9 -83 34 -46 43 -39 43 32 0 67 -7 78
-34 51z"/>
<path d="M1563 5833 c-10 -4 -13 -308 -13 -1474 0 -1462 0 -1469 20 -1469 20
0 20 7 20 1475 0 811 -3 1475 -7 1474 -5 0 -14 -3 -20 -6z"/>
<path d="M7010 4365 c0 -1401 1 -1476 18 -1473 16 3 17 81 17 1473 0 1392 -1
1470 -17 1473 -17 3 -18 -72 -18 -1473z"/>
<path d="M4138 3517 c-37 -13 -70 -26 -74 -29 -4 -5 114 -226 142 -266 1 -2
16 4 33 12 38 20 88 20 125 1 16 -9 32 -12 36 -8 22 25 140 249 136 258 -9 24
-111 48 -221 52 -96 3 -119 0 -177 -20z"/>
<path d="M4509 3338 c-23 -40 -50 -87 -60 -104 -24 -40 -24 -54 0 -54 18 0
171 151 171 169 0 5 -16 20 -34 35 l-35 26 -42 -72z"/>
<path d="M4013 3379 c-18 -12 -33 -24 -33 -28 0 -15 167 -171 183 -171 9 0 17
2 17 4 0 11 -118 210 -126 213 -5 1 -24 -7 -41 -18z"/>
<path d="M3973 3226 c-12 -19 -19 -37 -16 -40 9 -9 113 -7 113 2 0 8 -63 72
-70 72 -3 0 -15 -15 -27 -34z"/>
<path d="M4562 3227 c-18 -18 -32 -36 -32 -40 0 -4 27 -7 60 -7 37 0 60 4 60
11 0 14 -39 69 -49 69 -4 0 -21 -15 -39 -33z"/>
<path d="M4261 3207 c-36 -18 -65 -63 -65 -101 0 -73 73 -128 141 -105 91 30
96 168 8 205 -42 17 -53 17 -84 1z m89 -47 c46 -46 18 -120 -47 -120 -68 0
-99 78 -47 119 34 26 68 27 94 1z"/>
<path d="M4275 3134 c-19 -20 -16 -43 8 -58 37 -23 77 35 41 61 -23 17 -29 16
-49 -3z"/>
<path d="M3308 3104 c-2 -25 -2 -46 -1 -47 1 -1 194 -1 430 1 l428 2 -3 45 -4
45 -423 0 -423 0 -4 -46z"/>
<path d="M4440 3105 l0 -45 420 0 c231 0 423 0 428 0 4 0 8 20 10 45 l3 45
-430 0 -431 0 0 -45z"/>
<path d="M2135 3081 c-3 -6 -5 -209 -5 -453 0 -407 1 -444 17 -455 25 -19
4291 -19 4316 -1 16 12 17 49 15 463 l-3 450 -532 3 -532 2 -3 -72 -3 -73
-478 -2 c-451 -3 -480 -4 -502 -21 -13 -11 -45 -25 -70 -32 -57 -16 -126 -3
-182 34 l-38 25 -467 -3 -468 -4 0 74 0 74 -529 0 c-320 0 -532 -4 -536 -9z
m1385 -292 c82 -19 119 -83 86 -149 -14 -30 -14 -33 6 -61 39 -53 23 -126 -38
-165 -18 -13 -49 -17 -117 -18 l-92 -1 -5 189 c-4 149 -2 192 8 203 16 15 89
17 152 2z m480 -18 c19 -10 49 -37 65 -60 27 -38 30 -51 30 -116 0 -65 -3 -78
-30 -116 -98 -138 -309 -97 -346 67 -39 176 123 306 281 225z m290 7 c32 -35
123 -169 117 -174 -2 -3 -35 36 -72 86 -61 83 -70 90 -101 90 l-34 0 0 -180
c0 -173 1 -180 20 -180 19 0 20 7 20 137 l0 136 105 -141 c58 -78 112 -142
120 -142 13 0 15 28 15 185 0 178 -1 185 -20 185 -19 0 -20 -7 -20 -117 0 -99
-2 -114 -13 -98 -20 31 -8 214 16 229 12 8 22 8 35 0 15 -10 17 -33 20 -196 2
-153 0 -187 -12 -197 -27 -22 -50 -2 -141 122 l-90 122 -3 -115 c-1 -63 -7
-119 -12 -124 -5 -5 -20 -6 -34 -2 l-26 6 0 189 c0 142 3 191 13 194 31 13 77
6 97 -15z m534 -8 c67 -32 101 -93 100 -180 -1 -140 -83 -202 -259 -198 -33 1
-66 3 -72 6 -10 3 -13 52 -13 197 0 145 3 195 13 199 6 3 51 4 99 2 63 -2 98
-9 132 -26z m325 14 c22 -9 47 -27 56 -41 15 -23 15 -26 -1 -44 -22 -24 -41
-24 -56 1 -7 11 -23 20 -36 20 -40 0 -22 -30 48 -80 74 -53 96 -94 79 -152
-13 -45 -30 -65 -70 -82 -63 -26 -126 -5 -173 57 -19 26 -19 27 -1 47 24 27
32 25 62 -10 29 -35 76 -41 88 -13 7 20 -28 55 -83 85 -44 23 -67 64 -66 115
1 48 22 78 69 99 38 17 37 17 84 -2z"/>
<path d="M3370 2594 l0 -186 96 4 c94 3 96 4 125 36 40 44 40 93 -1 133 -29
30 -29 30 -10 49 22 22 26 70 9 102 -16 30 -71 48 -149 48 l-70 0 0 -186z
m138 134 c13 -13 16 -67 4 -84 -4 -6 -19 -14 -34 -18 l-28 -6 0 60 c0 56 2 60
23 60 13 0 28 -5 35 -12z m16 -164 c37 -37 7 -114 -45 -114 l-29 0 0 65 0 65
29 0 c16 0 37 -7 45 -16z"/>
<path d="M3460 2681 c0 -28 4 -41 14 -41 40 0 48 73 9 78 -21 3 -23 -1 -23
-37z"/>
<path d="M3467 2563 c-4 -3 -7 -26 -7 -50 0 -39 2 -43 25 -43 43 0 53 58 17
88 -18 14 -26 15 -35 5z"/>
<path d="M3835 2766 c-65 -29 -105 -94 -105 -171 0 -55 14 -92 48 -129 67 -72
174 -75 245 -8 43 40 57 75 57 137 0 31 -6 68 -14 83 -16 31 -61 74 -93 91
-29 15 -101 13 -138 -3z m132 -50 c27 -23 28 -27 28 -121 0 -94 -1 -98 -28
-121 -64 -55 -145 -11 -155 85 -6 69 4 115 34 151 33 38 80 41 121 6z"/>
<path d="M3855 2700 c-37 -41 -37 -169 0 -210 41 -46 115 -13 130 58 10 48 -4
127 -26 151 -26 27 -80 28 -104 1z"/>
<path d="M4600 2595 l0 -185 88 0 c71 0 96 4 132 23 56 27 90 88 90 158 0 127
-75 188 -227 189 l-83 0 0 -185z m170 128 c43 -25 63 -80 58 -154 -4 -54 -8
-65 -36 -90 -25 -23 -42 -29 -77 -29 l-45 0 0 145 0 145 36 0 c20 0 49 -8 64
-17z"/>
<path d="M4690 2598 l0 -128 38 0 c47 0 70 22 83 79 19 85 -21 165 -87 173
l-34 4 0 -128z"/>
<path d="M5040 2752 c-57 -57 -38 -122 56 -182 70 -46 77 -57 60 -91 -18 -37
-57 -36 -101 2 -30 26 -38 30 -46 18 -13 -20 -12 -23 14 -46 33 -31 62 -43
101 -43 46 0 93 40 102 86 10 55 -11 91 -82 135 -65 42 -84 70 -64 94 17 21
47 18 71 -6 19 -19 49 -20 49 -1 0 20 -51 54 -89 59 -35 5 -44 2 -71 -25z"/>
<path d="M1550 2756 c0 -9 11 -21 25 -26 37 -14 67 -68 61 -109 -6 -36 -37
-77 -68 -87 -10 -3 -18 -15 -18 -26 0 -17 4 -19 28 -14 35 9 78 56 90 100 20
71 -25 155 -90 171 -22 6 -28 4 -28 -9z"/>
<path d="M1550 2635 c0 -67 7 -77 34 -49 20 20 20 63 0 92 -25 36 -34 25 -34
-43z"/>
<path d="M6984 2751 c-61 -37 -81 -124 -43 -191 33 -59 109 -94 109 -50 0 12
-7 20 -16 20 -9 0 -29 14 -45 31 -38 41 -40 95 -4 138 14 16 35 33 45 36 25 8
26 35 3 35 -10 0 -32 -9 -49 -19z"/>
<path d="M7010 2673 c-15 -19 -19 -35 -15 -53 8 -31 23 -50 41 -50 11 0 14 16
14 65 0 36 -4 65 -9 65 -5 0 -19 -12 -31 -27z"/>
<path d="M1550 2250 c0 -123 1 -130 20 -130 19 0 20 7 20 130 0 123 -1 130
-20 130 -19 0 -20 -7 -20 -130z"/>
<path d="M7010 2250 c0 -123 1 -130 20 -130 19 0 20 7 20 130 0 123 -1 130
-20 130 -19 0 -20 -7 -20 -130z"/>
<path d="M1550 1980 c0 -13 7 -20 20 -20 13 0 20 7 20 20 0 13 -7 20 -20 20
-13 0 -20 -7 -20 -20z"/>
<path d="M1924 1599 c-9 -15 12 -33 30 -26 9 4 16 13 16 22 0 17 -35 21 -46 4z"/>
<path d="M2082 1593 c3 -17 24 -18 252 -21 248 -2 265 0 266 31 0 4 -117 7
-261 7 -243 0 -260 -1 -257 -17z"/>
<path d="M2927 1819 c7 -7 15 -10 18 -7 3 3 -2 9 -12 12 -14 6 -15 5 -6 -5z"/>
<path d="M3100 1590 c0 -20 5 -20 1197 -18 1132 3 1198 4 1201 21 3 16 -59 17
-1197 17 -1195 0 -1201 0 -1201 -20z"/>
<path d="M6000 1590 c0 -19 7 -20 255 -20 248 0 255 1 255 20 0 19 -7 20 -255
20 -248 0 -255 -1 -255 -20z"/>
<path d="M7010 1980 c0 -13 7 -20 20 -20 13 0 20 7 20 20 0 13 -7 20 -20 20
-13 0 -20 -7 -20 -20z"/>
<path d="M6645 1920 c-3 -6 1 -7 9 -4 18 7 21 14 7 14 -6 0 -13 -4 -16 -10z"/>
<path d="M6630 1590 c0 -13 7 -20 20 -20 13 0 20 7 20 20 0 13 -7 20 -20 20
-13 0 -20 -7 -20 -20z"/>
<path d="M1552 1775 c10 -123 77 -189 205 -202 l53 -6 0 137 0 136 -131 0
-132 0 5 -65z"/>
<path d="M6782 1708 l3 -133 28 -3 c40 -5 131 24 165 53 36 30 58 81 67 158
l7 57 -136 0 -137 0 3 -132z"/>
<path d="M2819 1700 c-43 -12 -76 -39 -93 -75 -20 -41 -20 -55 -1 -55 8 0 21
13 30 29 35 68 115 83 166 32 16 -16 29 -37 29 -45 0 -9 8 -16 20 -16 26 0 26
25 0 67 -29 49 -100 78 -151 63z"/>
<path d="M2802 1607 c-12 -13 -19 -27 -15 -30 10 -10 121 -8 128 2 8 13 -44
51 -70 51 -12 0 -31 -10 -43 -23z"/>
<path d="M5706 1700 c-16 -5 -42 -21 -57 -36 -28 -27 -52 -78 -42 -88 12 -12
34 -6 40 12 3 9 17 29 31 45 46 49 135 31 162 -33 14 -33 40 -40 40 -11 0 10
-10 33 -23 52 -34 51 -97 75 -151 59z"/>
<path d="M5700 1610 c-33 -33 -24 -40 45 -40 71 0 85 15 43 44 -31 22 -64 20
-88 -4z"/>
</g>
</svg>
